<?xml version="1.0" encoding="iso-8859-1"?>
<!-- Generator: Adobe Illustrator 16.0.0, SVG Export Plug-In . SVG Version: 6.00 Build 0)  -->
<!DOCTYPE svg PUBLIC "-//W3C//DTD SVG 1.1//EN" "http://www.w3.org/Graphics/SVG/1.1/DTD/svg11.dtd">
<svg version="1.1" id="Capa_1" xmlns="http://www.w3.org/2000/svg" xmlns:xlink="http://www.w3.org/1999/xlink" x="0px" y="0px"
	 width="47px" height="47px" viewBox="0 0 47 47" style="enable-background:new 0 0 47 47;" xml:space="preserve">
<g>
	<g>
		<path d="M1.558,3.814c0.353,0.353,0.815,0.528,1.278,0.528c0.462,0,0.925-0.177,1.278-0.528c0.706-0.706,0.706-1.852,0-2.558
			L3.688,0.832c-0.706-0.706-1.85-0.706-2.556,0s-0.706,1.851,0,2.557L1.558,3.814z"/>
		<path d="M3.627,5.135c0,0.482,0.193,0.94,0.53,1.276l3.254,3.255l0.65,0.65c0.337,0.338,0.795,0.529,1.278,0.529
			c0.482,0,0.939-0.191,1.277-0.529c0.337-0.337,0.53-0.796,0.53-1.277s-0.193-0.939-0.53-1.277l-0.651-0.65L6.712,3.857
			c-0.675-0.676-1.868-0.676-2.555,0C3.82,4.194,3.627,4.652,3.627,5.135z"/>
		<path d="M42.332,35.941c-1.655-0.847-3.715-1.899-6.178-3.833c-0.482-0.378-1.063-0.534-1.631-0.5
			c0.22-0.874,0.104-1.807-0.338-2.611c0.084-0.265,0.15-0.527,0.18-0.79c0.113-1.021-0.204-2.017-0.852-2.663L21.158,13.188
			c-0.226-0.227-1.448-1.352-3.343-1.352c-0.644,0-1.509,0.146-2.446,0.668l-2.149-2.141c-0.687-0.687-1.88-0.687-2.555,0
			c-0.349,0.338-0.53,0.796-0.53,1.278c0,0.48,0.181,0.928,0.53,1.276l2.139,2.141c-0.813,1.446-0.72,2.76-0.545,3.517
			c0.292,1.267,1.016,2.066,1.23,2.28l12.355,12.355c0.264,0.263,1.008,0.874,2.248,0.874c0.402,0,0.807-0.07,1.213-0.199
			c0.538,0.295,1.129,0.457,1.727,0.457c0.42,0,0.838-0.082,1.238-0.229c0.031,0.676,0.336,1.335,0.908,1.784
			c2.83,2.221,5.217,3.44,6.961,4.334c0.77,0.393,1.709,0.874,2.039,1.159c-0.013,0.32-0.076,0.459-0.107,0.484H2.41
			c-1.331,0-2.41,1.079-2.41,2.41s1.079,2.41,2.41,2.41h39.77c1.938,0,4.82-1.443,4.82-5.423C47,38.327,44.627,37.114,42.332,35.941
			z"/>
	</g>
</g>
<g>
</g>
<g>
</g>
<g>
</g>
<g>
</g>
<g>
</g>
<g>
</g>
<g>
</g>
<g>
</g>
<g>
</g>
<g>
</g>
<g>
</g>
<g>
</g>
<g>
</g>
<g>
</g>
<g>
</g>
</svg>
