<?xml version="1.0" encoding="iso-8859-1"?>
<!-- Generator: Adobe Illustrator 16.0.0, SVG Export Plug-In . SVG Version: 6.00 Build 0)  -->
<!DOCTYPE svg PUBLIC "-//W3C//DTD SVG 1.1//EN" "http://www.w3.org/Graphics/SVG/1.1/DTD/svg11.dtd">
<svg version="1.1" id="Capa_1" xmlns="http://www.w3.org/2000/svg" xmlns:xlink="http://www.w3.org/1999/xlink" x="0px" y="0px"
	 width="170.119px" height="170.119px" viewBox="0 0 170.119 170.119" style="enable-background:new 0 0 170.119 170.119;"
	 xml:space="preserve">
<g>
	<path d="M145.391,38.296C145.391,17.168,128.22,0,107.109,0C95.608,0,85.304,5.122,78.277,13.174
		C61.13,12.9,47.636,17.938,38.461,28.38C20.368,48.974,25.275,82.594,25.5,84.017c0.214,1.384,1.407,2.378,2.769,2.378
		c0.14,0,0.285-0.014,0.425-0.035c1.529-0.235,2.577-1.664,2.341-3.188c-0.049-0.325-4.758-32.437,11.633-51.086
		c7.342-8.348,17.948-12.781,31.52-13.246c-3.246,5.469-5.167,11.79-5.331,18.558c-0.824,0.167-1.584,0.359-2.225,0.572
		c-7.541,2.418-12.826,6.947-15.688,13.458c-6.843,15.527,2.733,36.758,3.145,37.653c0.459,0.998,1.45,1.634,2.549,1.634
		c1.097,0,2.087-0.636,2.547-1.634c3.42-7.456,7.891-11.429,12.922-11.497c4.914,0.011,9.195,3.417,10.388,5.844
		c4.315,8.797-7.132,21.284-11.906,25.344c-1.081,0.925-1.305,2.512-0.509,3.699c7.781,11.591,7.106,16.462,6.005,18.32
		c-1.95,3.327-8.276,2.9-8.818,2.9c-2.248,0.044-4.345-7.442-5.554-12.015c-1.781-6.732-3.322-12.532-7.604-13.497
		c-9.8-2.21-16.564-0.869-20.134,3.94c-8.262,11.174,5.666,36.329,7.062,38.683c3.872,11.29,13.945,18.293,27.653,19.212
		c0.995,0.065,1.989,0.104,2.973,0.104c12.996,0,24.972-5.675,29.169-14.068c6.09-12.181,8.136-20.52,9.937-27.863
		c1.521-6.281,2.856-11.698,6.452-18.271c8.471-15.469,13.438-29.726,14.773-42.361c0.006-0.08-0.021-0.14-0.014-0.214
		C140.166,60.309,145.391,49.91,145.391,38.296z M107.109,5.598c18.019,0,32.679,14.666,32.679,32.689
		c0,18.022-14.66,32.679-32.679,32.679c-17.503,0-31.778-13.822-32.607-31.114c0.005-0.165,0.054-0.326,0.033-0.495
		c-0.012-0.071-0.052-0.121-0.07-0.195c-0.005-0.292-0.042-0.582-0.042-0.875C74.417,20.268,89.081,5.598,107.109,5.598z
		 M112.302,107.218c-3.951,7.223-5.426,13.236-6.999,19.623c-1.733,7.069-3.693,15.068-9.511,26.703
		c-3.428,6.873-15.21,11.622-26.748,10.869c-5.369-0.358-18.319-2.585-22.942-15.903c-5.401-9.478-12.249-26.833-7.641-33.062
		c2.657-3.591,9.289-2.961,14.288-1.85c1.207,0.733,2.662,6.216,3.528,9.498c2.08,7.848,4.389,16.751,10.956,16.165
		c0.388,0.038,9.859,0.811,13.65-5.604c2.998-5.066,1.411-12.367-4.851-22.299c4.897-4.711,17.386-18.369,11.474-30.412
		c-1.839-3.754-7.779-8.983-15.28-8.983c-0.066,0-0.135,0-0.208,0.005c-4.23,0.049-9.929,1.844-14.909,9.272
		c-2.233-6.829-4.977-18.676-1.043-27.59c2.225-5.037,6.241-8.438,12.271-10.372c0.226-0.071,0.537-0.134,0.803-0.208
		c2.37,18.851,18.472,33.491,37.955,33.491c6.767,0,13.12-1.781,18.641-4.878C123.87,82.403,119.366,94.339,112.302,107.218z
		 M81.891,38.296c0-1.548,1.256-2.802,2.802-2.802h19.615v-19.62c0-1.546,1.26-2.802,2.802-2.802c1.545,0,2.801,1.256,2.801,2.802
		v19.62h19.611c1.544,0,2.802,1.253,2.802,2.802c0,1.545-1.258,2.801-2.802,2.801H109.91v19.612c0,1.545-1.256,2.801-2.801,2.801
		c-1.542,0-2.802-1.256-2.802-2.801V41.097H84.693C83.143,41.097,81.891,39.847,81.891,38.296z"/>
</g>
<g>
</g>
<g>
</g>
<g>
</g>
<g>
</g>
<g>
</g>
<g>
</g>
<g>
</g>
<g>
</g>
<g>
</g>
<g>
</g>
<g>
</g>
<g>
</g>
<g>
</g>
<g>
</g>
<g>
</g>
</svg>
