<?xml version="1.0" encoding="UTF-8" standalone="no"?>
<!DOCTYPE svg PUBLIC "-//W3C//DTD SVG 1.1//EN" "http://www.w3.org/Graphics/SVG/1.1/DTD/svg11.dtd">
<svg width="100%" height="100%" viewBox="0 0 48 48" version="1.1" xmlns="http://www.w3.org/2000/svg" xmlns:xlink="http://www.w3.org/1999/xlink" xml:space="preserve" xmlns:serif="http://www.serif.com/" style="fill-rule:evenodd;clip-rule:evenodd;stroke-linejoin:round;stroke-miterlimit:1.41421;">
    <g>
        <path d="M32.581,20.759C32.58,20.773 32.585,20.784 32.584,20.799C32.34,23.109 31.431,25.717 29.882,28.546C29.224,29.748 28.98,30.739 28.702,31.888C28.373,33.231 27.999,34.756 26.885,36.984C26.117,38.519 23.927,39.557 21.55,39.557C21.37,39.557 21.188,39.55 21.006,39.538C18.499,39.37 16.657,38.089 15.949,36.024C15.693,35.593 13.146,30.993 14.657,28.949C15.31,28.07 16.547,27.824 18.339,28.229C19.122,28.405 19.404,29.466 19.73,30.697C19.951,31.533 20.335,32.903 20.746,32.895C20.845,32.895 22.002,32.973 22.359,32.364C22.56,32.024 22.683,31.133 21.26,29.013C21.115,28.796 21.156,28.506 21.353,28.337C22.227,27.594 24.32,25.311 23.531,23.702C23.313,23.258 22.53,22.635 21.631,22.633C20.711,22.645 19.893,23.372 19.268,24.736C19.184,24.918 19.002,25.034 18.802,25.034C18.601,25.034 18.42,24.918 18.336,24.736C18.26,24.572 16.509,20.689 17.76,17.849C18.284,16.658 19.251,15.83 20.63,15.388C20.747,15.349 20.886,15.314 21.037,15.283C21.067,14.045 21.418,12.889 22.012,11.889C19.529,11.974 17.59,12.785 16.247,14.312C13.249,17.722 14.11,23.595 14.119,23.655C14.162,23.934 13.971,24.195 13.691,24.238C13.665,24.242 13.639,24.244 13.613,24.244C13.364,24.244 13.146,24.063 13.107,23.809C13.066,23.549 12.168,17.4 15.477,13.634C17.155,11.724 19.623,10.803 22.76,10.853C24.045,9.38 25.929,8.443 28.033,8.443C31.894,8.443 35.034,11.583 35.034,15.447C35.034,17.571 34.079,19.473 32.581,20.759L32.581,20.759ZM22.055,15.446C22.055,15.499 22.061,15.552 22.062,15.606C22.066,15.619 22.073,15.628 22.075,15.641C22.079,15.672 22.07,15.702 22.069,15.732C22.221,18.895 24.831,21.422 28.033,21.422C31.328,21.422 34.009,18.742 34.009,15.446C34.009,12.149 31.328,9.467 28.033,9.467C24.735,9.467 22.054,12.15 22.055,15.446L22.055,15.446ZM31.439,21.554C30.43,22.12 29.268,22.446 28.03,22.446C24.467,22.446 21.522,19.768 21.088,16.32C21.04,16.334 20.983,16.346 20.942,16.359C19.839,16.712 19.104,17.334 18.697,18.255C17.978,19.886 18.48,22.053 18.888,23.302C19.799,21.943 20.841,21.615 21.615,21.606C21.628,21.605 21.641,21.605 21.653,21.605C23.025,21.605 24.111,22.561 24.447,23.248C25.529,25.45 23.245,27.948 22.349,28.81C23.494,30.626 23.784,31.962 23.236,32.888C22.543,34.062 20.811,33.92 20.74,33.913C19.539,34.02 19.116,32.392 18.736,30.957C18.577,30.357 18.311,29.354 18.091,29.22C17.176,29.016 15.963,28.901 15.477,29.558C14.635,30.697 15.887,33.871 16.875,35.605C17.72,38.041 20.089,38.448 21.071,38.513C23.181,38.651 25.336,37.783 25.963,36.526C27.027,34.398 27.385,32.935 27.702,31.642C27.99,30.474 28.26,29.374 28.982,28.053C30.274,25.697 31.098,23.514 31.439,21.554L31.439,21.554ZM23.42,15.447C23.42,15.164 23.65,14.935 23.933,14.935L27.52,14.935L27.52,11.346C27.52,11.064 27.751,10.834 28.033,10.834C28.315,10.834 28.545,11.064 28.545,11.346L28.545,14.935L32.132,14.935C32.414,14.935 32.644,15.164 32.644,15.447C32.644,15.73 32.414,15.96 32.132,15.96L28.545,15.96L28.545,19.547C28.545,19.829 28.315,20.059 28.033,20.059C27.751,20.059 27.52,19.829 27.52,19.547L27.52,15.96L23.933,15.96C23.649,15.96 23.42,15.731 23.42,15.447Z" style="fill:white;fill-rule:nonzero;"/>
    </g>
</svg>
