<?xml version="1.0" encoding="iso-8859-1"?>
<!-- Generator: Adobe Illustrator 18.1.1, SVG Export Plug-In . SVG Version: 6.00 Build 0)  -->
<svg version="1.1" id="Capa_1" xmlns="http://www.w3.org/2000/svg"  x="0px" y="0px"
	 viewBox="0 0 193.544 193.544" style="enable-background:new 0 0 193.544 193.544;" xml:space="preserve">
<g>
	<g>
		<path style="fill:#010002;" d="M96.772,0C60.984,0,31.866,29.114,31.866,64.906v63.732c-0.004,35.785,29.118,64.906,64.906,64.906
			s64.906-29.121,64.906-64.906V64.906C161.678,29.114,132.561,0,96.772,0z M96.772,189.232c-33.409,0-60.597-27.181-60.597-60.594
			V64.906c0-33.412,27.189-60.597,60.597-60.597c33.412,0,60.604,27.185,60.604,60.597v63.732
			C157.376,162.05,130.184,189.232,96.772,189.232z"/>
		<path style="fill:#010002;" d="M125.063,68.156l-30.86-30.853l-0.251-0.258l-1.238,1.242h-1.746v52.677L79.347,79.343
			l-0.254-0.258l-3.207,3.207L90.237,96.65l-13.925,13.932l-0.258,0.251l3.207,3.203l11.699-11.699v52.92h1.746l1.238,1.245
			l30.846-30.857l0.265-0.251L96.908,97.248l0.161-0.161l-0.429-0.44l28.162-28.241L125.063,68.156z M95.502,148.522v-46.275
			l23.134,23.148L95.502,148.522z M95.502,91.296V45.022l23.134,23.13L95.502,91.296z"/>
	</g>
</g>
<g>
</g>
<g>
</g>
<g>
</g>
<g>
</g>
<g>
</g>
<g>
</g>
<g>
</g>
<g>
</g>
<g>
</g>
<g>
</g>
<g>
</g>
<g>
</g>
<g>
</g>
<g>
</g>
<g>
</g>
</svg>
