<?xml version="1.0" encoding="iso-8859-1"?>
<!-- Generator: Adobe Illustrator 16.0.0, SVG Export Plug-In . SVG Version: 6.00 Build 0)  -->
<!DOCTYPE svg PUBLIC "-//W3C//DTD SVG 1.1//EN" "http://www.w3.org/Graphics/SVG/1.1/DTD/svg11.dtd">
<svg version="1.1" id="Capa_1" xmlns="http://www.w3.org/2000/svg"  x="0px" y="0px"
	 width="792.001px" height="792.001px" viewBox="0 0 792.001 792.001" style="enable-background:new 0 0 792.001 792.001;"
	 xml:space="preserve">
<g>
	<g id="_x33_">
		<g>
			<path d="M520.104,593.94h-74.231v-395.9h74.231c15.91,0,31.994,0.396,41.718-9.304c9.725-9.699,9.725-25.437,0-35.136
				L414.868,7.067c-5.196-5.171-12.075-7.374-18.855-7.027c-6.804-0.371-13.683,1.831-18.879,7.027L230.18,153.6
				c-9.724,9.7-9.724,25.437,0,35.137c9.725,9.699,25.016,9.303,42.485,9.303h74.231v395.9h-74.231
				c-15.91,0-32.761-0.396-42.485,9.304c-9.724,9.7-9.724,25.437,0,35.137l146.954,146.558c5.196,5.171,12.075,7.373,18.855,7.027
				c6.805,0.346,13.684-1.856,18.855-7.027l146.953-146.558c9.725-9.7,9.725-25.437,0-35.137
				C552.098,593.545,538.34,593.94,520.104,593.94z"/>
		</g>
	</g>
</g>
<g>
</g>
<g>
</g>
<g>
</g>
<g>
</g>
<g>
</g>
<g>
</g>
<g>
</g>
<g>
</g>
<g>
</g>
<g>
</g>
<g>
</g>
<g>
</g>
<g>
</g>
<g>
</g>
<g>
</g>
</svg>
