<?xml version="1.0" encoding="UTF-8" standalone="no"?><!DOCTYPE svg PUBLIC "-//W3C//DTD SVG 1.1//EN"
    "http://www.w3.org/Graphics/SVG/1.1/DTD/svg11.dtd">
<svg style="fill-rule:evenodd;clip-rule:evenodd;stroke-linejoin:round;stroke-miterlimit:1.41421;" height="100%" version="1.1" viewBox="0 0 471 471" width="100%"  xmlns="http://www.w3.org/2000/svg"  xml:space="preserve">
    <g>
        <path style="fill:white;fill-rule:nonzero;" d="M397.34,153.999C397.356,153.983 459.055,92.283 459.055,92.283C473.675,77.662 473.675,53.871 459.055,39.25L430.771,10.966C416.15,-3.653 392.36,-3.657 377.737,10.966L363.593,25.11C360.664,28.04 360.664,32.788 363.593,35.717C366.523,38.645 371.271,38.645 374.2,35.717L388.343,21.573C397.116,12.801 411.39,12.801 420.163,21.573L448.447,49.857C457.219,58.629 457.219,72.904 448.447,81.676L418.395,111.729L352.988,46.322C350.058,43.394 345.31,43.394 342.381,46.322L316.039,72.664C316.021,72.682 51.695,337.008 51.695,337.008C51.68,337.023 51.668,337.039 51.653,337.055C51.59,337.119 51.532,337.188 51.472,337.255C50.88,337.902 50.399,338.643 50.064,339.456L21.192,409.572C21.182,409.596 21.172,409.62 21.163,409.643L0.565,459.665C-0.587,462.465 0.056,465.683 2.197,467.824C3.633,469.259 5.551,470.02 7.503,470.02C8.464,470.02 9.433,469.835 10.357,469.456L60.384,448.856C60.403,448.848 60.422,448.84 60.442,448.833L130.566,419.958C131.383,419.621 132.127,419.137 132.777,418.541C132.84,418.484 132.904,418.43 132.965,418.371C132.981,418.355 132.999,418.342 133.015,418.326L397.34,153.999ZM130.295,399.829C128.277,396.386 125.806,393.178 122.931,390.302C117.051,384.422 109.919,380.327 102.361,378.268L298.353,182.276C301.282,179.346 301.282,174.598 298.353,171.669C295.423,168.741 290.675,168.741 287.746,171.669L91.754,367.66C89.694,360.101 85.599,352.97 79.719,347.09C76.843,344.215 73.635,341.744 70.191,339.726L321.334,88.584L346.082,113.332L316.03,143.384C313.101,146.314 313.101,151.062 316.03,153.991C317.495,155.455 319.415,156.187 321.334,156.187C323.253,156.187 325.173,155.455 326.638,153.991L356.69,123.939L381.439,148.687L130.295,399.829ZM59.356,433.057L36.964,410.666L61.17,351.881C64.058,353.377 66.746,355.33 69.112,357.697C76.2,364.784 79.484,374.408 77.896,383.439C77.472,385.848 78.25,388.312 79.979,390.042C81.708,391.771 84.173,392.549 86.582,392.125C95.614,390.537 105.237,393.822 112.324,400.909C114.691,403.275 116.644,405.963 118.14,408.851L59.356,433.057ZM347.685,62.232L407.789,122.336L392.044,138.08L331.94,77.976L347.685,62.232ZM30.776,425.692L44.328,439.245L21.289,448.731L30.776,425.692Z"/>
    </g>
</svg>
