<?xml version="1.0" encoding="UTF-8" standalone="no"?>
<!DOCTYPE svg PUBLIC "-//W3C//DTD SVG 1.1//EN" "http://www.w3.org/Graphics/SVG/1.1/DTD/svg11.dtd">
<svg xmlns:serif="http://www.serif.com/" width="100%" height="100%" viewBox="0 0 301 145" version="1.1"  xmlns="http://www.w3.org/2000/svg" xml:space="preserve" style="fill-rule:evenodd;clip-rule:evenodd;stroke-linecap:round;stroke-linejoin:round;stroke-miterlimit:1.5;">
    <g id="Smartphone" transform="matrix(0.182915,0,0,0.182915,161.731,54.2313)">
        <g transform="matrix(1,0,0,1,-505.554,-109.751)">
            <rect x="514.248" y="159.871" width="233" height="382" style="fill:white;fill-rule:nonzero;"/>
        </g>
        <g transform="matrix(1,0,0,1,-505.554,-109.751)">
            <path d="M745.026,539.835C744.026,540.269 743.673,540.622 743.238,540.622L517.268,540.622C516.833,540.622 516.482,540.269 516.482,539.835L516.482,163.629C516.482,163.195 516.833,162.843 517.268,162.843L743.238,162.843C743.673,162.843 744.026,163.195 745.026,163.629L745.026,539.835ZM724.66,109.751L535.831,109.751C519.109,109.751 505.554,123.981 505.554,141.532L505.554,571.687C505.554,589.239 519.109,603.468 535.831,603.468L724.66,603.468C741.381,603.468 754.936,589.239 754.936,571.687L754.936,141.532C754.936,123.981 741.381,109.751 724.66,109.751Z" style="fill:rgb(51,51,51);fill-rule:nonzero;"/>
        </g>
        <g transform="matrix(1,0,0,1,-505.554,-109.751)">
            <path d="M743.238,540.622C743.24,540.622 743.242,540.622 743.245,540.622C743.242,540.622 743.24,540.622 743.238,540.622ZM743.246,540.622C743.547,540.619 743.801,540.441 743.931,540.19L743.931,540.386C743.661,540.53 743.463,540.62 743.246,540.622ZM516.482,539.835L516.482,163.629C516.482,163.195 516.833,162.843 517.268,162.843L743.245,162.843C743.243,162.843 743.24,162.843 743.238,162.843L517.268,162.843C516.833,162.843 516.482,163.195 516.482,163.629L516.482,539.835ZM743.931,163.274C743.801,163.023 743.547,162.846 743.246,162.843C743.463,162.845 743.661,162.935 743.931,163.079L743.931,163.274Z" style="fill:rgb(72,72,72);fill-rule:nonzero;"/>
        </g>
        <g transform="matrix(1,0,0,1,-505.554,-109.751)">
            <path d="M715.614,595.16L544.684,595.16C529.046,595.16 516.367,582.482 516.367,566.844L516.367,143.68C516.367,128.042 529.046,115.364 544.684,115.364L619.83,115.364L631.805,162.783L743.819,162.783L743.819,142.007C743.819,141.609 743.809,141.213 743.788,140.818C743.882,141.759 743.931,142.714 743.931,143.68L743.931,163.079C743.661,162.935 743.463,162.845 743.246,162.843L743.245,162.843C743.243,162.843 743.24,162.843 743.238,162.843L517.268,162.843C516.833,162.843 516.482,163.195 516.482,163.629L516.482,539.835C516.482,540.269 516.833,540.622 517.268,540.622L743.246,540.622C743.463,540.62 743.661,540.53 743.931,540.386L743.931,566.844C743.931,582.482 731.253,595.16 715.614,595.16ZM738.469,126.959C735.733,123.363 732.168,120.394 728.3,118.358C732.336,120.384 735.82,123.346 738.469,126.959Z" style="fill:rgb(31,31,31);fill-rule:nonzero;"/>
        </g>
        <g transform="matrix(1,0,0,1,-505.554,-109.751)">
            <path d="M743.788,140.818C743.271,135.665 741.372,130.921 738.469,126.959C741.501,130.946 743.515,135.706 743.788,140.818ZM728.3,118.358C724.484,116.443 720.175,115.364 715.614,115.364L619.83,115.364L619.825,115.347L716.988,115.347C720.731,115.347 724.65,116.437 728.3,118.358Z" style="fill:rgb(113,113,113);fill-rule:nonzero;"/>
        </g>
        <g transform="matrix(1,0,0,1,-505.554,-109.751)">
            <path d="M743.819,162.783L631.805,162.783L619.83,115.364L715.614,115.364C720.175,115.364 724.484,116.443 728.3,118.358C732.168,120.394 735.733,123.363 738.469,126.959C741.372,130.921 743.271,135.665 743.788,140.818C743.809,141.213 743.819,141.609 743.819,142.007L743.819,162.783Z" style="fill:rgb(99,99,99);fill-rule:nonzero;"/>
        </g>
        <g transform="matrix(1,0,0,1,-505.554,-109.751)">
            <path d="M627.682,129.805C627.682,131.221 628.83,132.373 630.25,132.373C631.668,132.373 632.815,131.221 632.815,129.805C632.815,128.382 631.668,127.237 630.25,127.237C628.83,127.237 627.682,128.382 627.682,129.805Z" style="fill:rgb(64,64,64);fill-rule:nonzero;"/>
        </g>
        <g transform="matrix(1,0,0,1,-505.554,-109.751)">
            <path d="M647.531,144.508C647.531,145.467 646.653,146.167 645.585,146.167L614.915,146.167C613.841,146.167 612.967,145.467 612.967,144.508C612.967,143.55 613.841,142.849 614.915,142.849L645.585,142.849C646.653,142.849 647.531,143.55 647.531,144.508Z" style="fill:rgb(64,64,64);fill-rule:nonzero;"/>
        </g>
        <g transform="matrix(1,0,0,1,-505.554,-109.751)">
            <path d="M591.962,144.414C591.962,146.337 593.521,147.898 595.446,147.898C597.37,147.898 598.928,146.337 598.928,144.414C598.928,142.484 597.37,140.931 595.446,140.931C593.521,140.931 591.962,142.484 591.962,144.414Z" style="fill:rgb(64,64,64);fill-rule:nonzero;"/>
        </g>
        <g transform="matrix(1,0,0,1,-505.554,-109.751)">
            <path d="M592.926,144.414C592.926,145.805 594.052,146.935 595.446,146.935C596.839,146.935 597.964,145.805 597.964,144.414C597.964,143.019 596.839,141.896 595.446,141.896C594.052,141.896 592.926,143.019 592.926,144.414Z" style="fill:rgb(89,89,89);fill-rule:nonzero;"/>
        </g>
    </g>
    <g id="Kabel" transform="matrix(1,0,0,1,-60.7156,-31.1741)">
        <path d="M221.168,40.232L221.264,40.233L221.359,40.235L221.453,40.239L221.548,40.243L221.642,40.248L221.735,40.255L221.828,40.262L221.921,40.27L222.014,40.279L222.106,40.289L222.198,40.3L222.289,40.312L222.38,40.325L222.471,40.339L222.561,40.354L222.651,40.37L222.74,40.387L222.829,40.405L222.918,40.423L223.006,40.443L223.094,40.463L223.182,40.485L223.269,40.507L223.356,40.53L223.442,40.554L223.528,40.579L223.614,40.605L223.699,40.632L223.783,40.659L223.868,40.688L223.952,40.717L224.035,40.747L224.118,40.778L224.201,40.81L224.283,40.843L224.365,40.877L224.447,40.911L224.528,40.946L224.608,40.983L224.689,41.019L224.768,41.057L224.848,41.096L224.927,41.135L225.005,41.175L225.083,41.216L225.161,41.258L225.238,41.3L225.315,41.344L225.391,41.388L225.467,41.432L225.543,41.478L225.618,41.524L225.693,41.571L225.767,41.619L225.841,41.668L225.914,41.717L225.987,41.767L226.06,41.818L226.132,41.869L226.204,41.921L226.275,41.974L226.347,42.028L226.487,42.136L226.625,42.248L226.762,42.363L226.898,42.48L227.032,42.599L227.164,42.722L227.294,42.846L227.423,42.974L227.551,43.103L227.676,43.235L227.8,43.37L227.923,43.506L228.043,43.645L228.163,43.787L228.28,43.93L228.396,44.076L228.511,44.223L228.624,44.373L228.735,44.525L228.845,44.679L228.954,44.835L229.061,44.993L229.166,45.152L229.27,45.314L229.373,45.478L229.474,45.643L229.573,45.81L229.671,45.979L229.768,46.15L229.863,46.322L229.957,46.496L230.049,46.672L230.14,46.849L230.23,47.028L230.318,47.208L230.405,47.39L230.491,47.574L230.575,47.758L230.657,47.945L230.739,48.132L230.819,48.321L230.898,48.512L230.975,48.704L231.051,48.896L231.126,49.091L231.199,49.286L231.271,49.483L231.342,49.68L231.412,49.879L231.48,50.079L231.547,50.28L231.613,50.482L231.677,50.685L231.741,50.889L231.803,51.094L231.863,51.3L231.923,51.507L231.981,51.715L232.038,51.923L232.094,52.132L232.148,52.342L232.202,52.553L232.254,52.764L232.305,52.976L232.354,53.189L232.403,53.402L232.45,53.616L232.496,53.831L232.541,54.046L232.585,54.261L232.628,54.477L232.669,54.693L232.71,54.91L232.749,55.127L232.787,55.345L232.824,55.562L232.859,55.78L232.894,55.999L232.927,56.217L232.96,56.436L232.991,56.655L233.021,56.873L233.05,57.092L233.078,57.312L233.104,57.531L233.13,57.75L233.154,57.969L233.178,58.188L233.2,58.407L233.221,58.626L233.242,58.844L233.261,59.063L233.279,59.281L233.296,59.499L233.311,59.717L233.326,59.933L233.315,60.106L233.26,60.271L233.163,60.416L233.033,60.531L232.877,60.609L232.706,60.643L232.532,60.632L232.368,60.577L232.223,60.48L232.108,60.35L232.03,60.194L231.996,60.023L231.981,59.811L231.966,59.599L231.95,59.387L231.932,59.176L231.914,58.963L231.894,58.751L231.873,58.539L231.852,58.326L231.829,58.114L231.805,57.901L231.78,57.689L231.754,57.476L231.727,57.264L231.699,57.051L231.67,56.839L231.64,56.627L231.609,56.415L231.576,56.204L231.543,55.992L231.508,55.781L231.473,55.571L231.436,55.36L231.398,55.15L231.359,54.941L231.319,54.732L231.278,54.523L231.236,54.315L231.192,54.108L231.148,53.901L231.102,53.694L231.055,53.489L231.007,53.284L230.958,53.08L230.908,52.876L230.857,52.673L230.804,52.472L230.751,52.271L230.696,52.071L230.64,51.871L230.583,51.673L230.525,51.476L230.466,51.28L230.405,51.084L230.344,50.89L230.281,50.697L230.217,50.506L230.152,50.315L230.085,50.125L230.018,49.937L229.949,49.75L229.88,49.565L229.809,49.381L229.737,49.198L229.663,49.016L229.589,48.836L229.513,48.658L229.437,48.481L229.359,48.305L229.279,48.131L229.199,47.959L229.118,47.788L229.035,47.619L228.951,47.452L228.866,47.287L228.78,47.123L228.693,46.961L228.604,46.801L228.515,46.642L228.424,46.486L228.332,46.332L228.239,46.179L228.144,46.029L228.049,45.88L227.952,45.734L227.855,45.589L227.756,45.447L227.655,45.307L227.554,45.169L227.452,45.033L227.348,44.9L227.244,44.769L227.138,44.64L227.031,44.513L226.923,44.389L226.814,44.267L226.703,44.147L226.592,44.03L226.479,43.915L226.365,43.803L226.251,43.693L226.135,43.586L226.018,43.481L225.899,43.379L225.78,43.279L225.66,43.182L225.537,43.087L225.477,43.042L225.415,42.996L225.353,42.951L225.291,42.907L225.229,42.864L225.166,42.821L225.103,42.778L225.04,42.737L224.977,42.696L224.913,42.656L224.849,42.616L224.785,42.578L224.72,42.54L224.655,42.502L224.59,42.465L224.524,42.429L224.458,42.394L224.392,42.359L224.326,42.325L224.259,42.292L224.192,42.26L224.125,42.228L224.057,42.197L223.989,42.166L223.921,42.136L223.852,42.107L223.783,42.079L223.714,42.052L223.645,42.025L223.575,41.999L223.505,41.973L223.434,41.949L223.364,41.925L223.292,41.902L223.221,41.879L223.149,41.857L223.077,41.837L223.005,41.816L222.932,41.797L222.859,41.778L222.785,41.76L222.711,41.743L222.637,41.727L222.562,41.711L222.488,41.696L222.412,41.682L222.337,41.669L222.261,41.656L222.184,41.644L222.107,41.633L222.03,41.623L221.953,41.614L221.875,41.605L221.797,41.598L221.718,41.591L221.639,41.584L221.559,41.579L221.479,41.575L221.399,41.571L221.319,41.568L221.237,41.566L221.156,41.565L221.074,41.565L220.993,41.565L220.892,41.567L220.793,41.571L220.694,41.576L220.596,41.584L220.498,41.593L220.401,41.603L220.305,41.616L220.208,41.63L220.113,41.646L220.017,41.663L219.922,41.682L219.828,41.703L219.734,41.726L219.64,41.75L219.546,41.776L219.453,41.804L219.361,41.833L219.268,41.864L219.176,41.897L219.084,41.931L218.993,41.967L218.902,42.005L218.811,42.044L218.72,42.085L218.63,42.128L218.54,42.173L218.45,42.219L218.36,42.267L218.271,42.317L218.182,42.368L218.093,42.421L218.004,42.476L217.915,42.532L217.827,42.591L217.739,42.651L217.651,42.712L217.564,42.776L217.476,42.841L217.389,42.908L217.302,42.976L217.216,43.046L217.129,43.118L217.043,43.192L216.957,43.267L216.871,43.345L216.785,43.423L216.7,43.504L216.615,43.586L216.53,43.67L216.445,43.756L216.361,43.843L216.277,43.932L216.193,44.023L216.109,44.115L216.025,44.209L215.942,44.305L215.859,44.403L215.776,44.502L215.693,44.602L215.611,44.705L215.529,44.809L215.447,44.915L215.365,45.022L215.284,45.131L215.203,45.242L215.122,45.354L215.041,45.468L214.961,45.584L214.881,45.701L214.801,45.819L214.721,45.94L214.642,46.062L214.563,46.185L214.484,46.31L214.406,46.437L214.327,46.565L214.249,46.695L214.171,46.826L214.094,46.959L214.016,47.093L213.939,47.229L213.862,47.367L213.786,47.506L213.71,47.646L213.633,47.788L213.558,47.932L213.482,48.077L213.407,48.223L213.332,48.371L213.257,48.521L213.182,48.671L213.108,48.824L213.034,48.977L212.96,49.133L212.887,49.289L212.813,49.447L212.74,49.607L212.667,49.768L212.595,49.93L212.523,50.094L212.45,50.259L212.379,50.426L212.307,50.594L212.236,50.762L212.093,51.106L211.952,51.454L211.812,51.807L211.673,52.166L211.534,52.53L211.397,52.899L211.26,53.274L211.124,53.653L210.989,54.038L210.855,54.427L210.722,54.822L210.589,55.221L210.458,55.625L210.327,56.034L210.196,56.448L210.067,56.866L209.938,57.289L209.81,57.717L209.683,58.149L209.556,58.586L209.43,59.027L209.305,59.472L209.18,59.922L209.056,60.376L208.932,60.834L208.809,61.297L208.687,61.763L208.565,62.234L208.444,62.709L208.323,63.187L208.203,63.67L208.083,64.156L207.964,64.646L207.845,65.14L207.727,65.638L207.609,66.139L207.491,66.644L207.374,67.153L207.257,67.665L207.14,68.18L207.024,68.699L206.908,69.221L206.793,69.747L206.678,70.276L206.563,70.808L206.448,71.343L206.333,71.881L206.219,72.423L206.105,72.967L205.991,73.514L205.763,74.618L205.536,75.733L205.309,76.858L205.083,77.994L204.857,79.141L204.63,80.296L204.404,81.462L204.177,82.636L203.949,83.818L203.721,85.009L203.492,86.207L203.031,88.626L202.566,91.07L202.094,93.538L201.856,94.779L201.616,96.025L201.374,97.276L201.129,98.53L200.882,99.787L200.633,101.048L200.381,102.311L200.127,103.576L199.869,104.843L199.608,106.112L199.477,106.747L199.345,107.382L199.211,108.017L199.077,108.652L198.943,109.288L198.807,109.923L198.67,110.559L198.533,111.194L198.394,111.829L198.255,112.464L198.114,113.099L197.973,113.733L197.83,114.368L197.687,115.002L197.542,115.635L197.397,116.268L197.25,116.9L197.102,117.532L196.953,118.164L196.803,118.794L196.652,119.424L196.5,120.053L196.346,120.682L196.191,121.309L196.035,121.936L195.878,122.562L195.719,123.186L195.56,123.81L195.398,124.433L195.236,125.054L195.072,125.674L194.907,126.293L194.741,126.911L194.573,127.528L194.403,128.143L194.233,128.756L194.061,129.368L193.887,129.979L193.712,130.588L193.535,131.195L193.357,131.801L193.177,132.405L192.996,133.007L192.813,133.608L192.629,134.206L192.443,134.803L192.255,135.397L192.066,135.99L191.875,136.581L191.682,137.169L191.488,137.756L191.292,138.34L191.094,138.922L190.895,139.501L190.693,140.078L190.49,140.653L190.285,141.226L190.078,141.796L189.87,142.363L189.659,142.928L189.447,143.49L189.233,144.049L189.016,144.606L188.798,145.16L188.578,145.711L188.356,146.259L188.132,146.804L188.019,147.076L187.906,147.347L187.792,147.617L187.678,147.886L187.563,148.155L187.447,148.423L187.331,148.69L187.215,148.956L187.098,149.221L186.981,149.486L186.863,149.749L186.744,150.012L186.625,150.275L186.505,150.536L186.385,150.796L186.265,151.056L186.143,151.315L186.022,151.573L185.899,151.83L185.776,152.086L185.653,152.342L185.529,152.596L185.404,152.85L185.279,153.103L185.154,153.355L185.027,153.606L184.901,153.856L184.773,154.105L184.645,154.353L184.517,154.601L184.388,154.847L184.258,155.093L184.128,155.337L183.997,155.581L183.865,155.824L183.733,156.065L183.601,156.306L183.468,156.546L183.334,156.785L183.199,157.023L183.064,157.259L182.929,157.495L182.792,157.73L182.656,157.964L182.518,158.197L182.38,158.429L182.241,158.66L182.102,158.889L181.962,159.118L181.822,159.346L181.68,159.573L181.539,159.798L181.396,160.023L181.253,160.246L181.109,160.469L180.965,160.69L180.82,160.91L180.674,161.13L180.528,161.348L180.381,161.565L180.233,161.781L180.085,161.995L179.936,162.209L179.786,162.421L179.636,162.633L179.485,162.843L179.306,163.089L179.127,163.332L178.946,163.573L178.765,163.811L178.583,164.046L178.401,164.278L178.217,164.508L178.033,164.735L177.848,164.959L177.662,165.18L177.476,165.399L177.289,165.615L177.101,165.829L176.913,166.04L176.723,166.248L176.534,166.453L176.343,166.656L176.152,166.856L175.96,167.054L175.768,167.249L175.575,167.441L175.382,167.63L175.188,167.817L174.993,168.001L174.798,168.183L174.602,168.362L174.406,168.538L174.209,168.712L174.012,168.883L173.814,169.051L173.616,169.217L173.417,169.38L173.218,169.541L173.018,169.698L172.818,169.854L172.617,170.006L172.416,170.156L172.215,170.304L172.013,170.448L171.81,170.591L171.608,170.73L171.405,170.867L171.201,171.002L170.998,171.133L170.794,171.262L170.589,171.389L170.385,171.513L170.18,171.634L169.975,171.753L169.769,171.87L169.563,171.983L169.357,172.094L169.151,172.203L168.944,172.309L168.738,172.412L168.531,172.513L168.323,172.611L168.116,172.707L167.909,172.8L167.701,172.89L167.493,172.978L167.285,173.064L167.077,173.147L166.869,173.227L166.661,173.305L166.452,173.38L166.244,173.453L166.035,173.523L165.827,173.59L165.618,173.655L165.409,173.718L165.201,173.778L164.992,173.835L164.783,173.89L164.575,173.943L164.366,173.992L164.158,174.04L163.949,174.085L163.741,174.127L163.532,174.167L163.324,174.204L163.116,174.239L162.908,174.271L162.7,174.301L162.493,174.328L162.285,174.353L162.078,174.375L161.871,174.395L161.664,174.412L161.457,174.427L161.25,174.44L161.044,174.449L160.838,174.457L160.632,174.462L160.427,174.464L160.222,174.464L160.017,174.462L159.812,174.457L159.608,174.449L159.405,174.439L159.201,174.427L158.998,174.412L158.795,174.395L158.593,174.376L158.391,174.353L158.19,174.329L157.989,174.302L157.788,174.273L157.588,174.241L157.389,174.207L157.19,174.17L156.991,174.131L156.793,174.089L156.596,174.046L156.399,173.999L156.202,173.951L156.007,173.9L155.811,173.846L155.617,173.791L155.423,173.732L155.23,173.672L155.037,173.609L154.845,173.544L154.653,173.476L154.463,173.406L154.273,173.334L154.084,173.259L153.895,173.182L153.707,173.103L153.52,173.021L153.334,172.937L153.149,172.851L152.964,172.762L152.78,172.672L152.597,172.578L152.415,172.483L152.233,172.385L152.053,172.285L151.873,172.183L151.694,172.078L151.516,171.971L151.339,171.862L151.163,171.751L150.988,171.637L150.814,171.521L150.641,171.403L150.468,171.283L150.297,171.16L150.127,171.035L149.957,170.908L149.789,170.779L149.622,170.647L149.455,170.514L149.29,170.378L149.126,170.24L148.963,170.099L148.801,169.957L148.64,169.812L148.48,169.665L148.322,169.516L148.164,169.365L148.008,169.212L147.852,169.056L147.698,168.899L147.545,168.739L147.394,168.577L147.243,168.413L147.094,168.247L146.946,168.078L146.799,167.908L146.653,167.736L146.509,167.561L146.366,167.384L146.224,167.205L146.083,167.024L145.944,166.841L145.806,166.656L145.669,166.469L145.534,166.28L145.4,166.089L145.267,165.895L145.136,165.7L145.006,165.502L144.878,165.303L144.751,165.101L144.625,164.897L144.501,164.692L144.378,164.484L144.256,164.274L144.137,164.063L144.018,163.849L143.901,163.633L143.786,163.415L143.671,163.195L143.559,162.974L143.448,162.75L143.338,162.524L143.23,162.296L143.124,162.067L143.019,161.835L142.916,161.601L142.814,161.366L142.714,161.128L142.616,160.888L142.519,160.647L142.423,160.403L142.33,160.158L142.238,159.911L142.147,159.661L142.059,159.41L141.972,159.157L141.886,158.902L141.803,158.645L141.721,158.386L141.641,158.125L141.562,157.862L141.486,157.598L141.411,157.331L141.337,157.062L141.266,156.792L141.196,156.52L141.128,156.246L141.062,155.97L140.998,155.692L140.936,155.412L140.875,155.13L140.816,154.847L140.76,154.562L140.705,154.274L140.652,153.985L140.6,153.694L140.551,153.402L140.504,153.107L140.458,152.811L140.415,152.512L140.373,152.212L140.333,151.91L140.296,151.607L140.26,151.301L140.226,150.994L140.195,150.684L140.165,150.374L140.137,150.061L140.112,149.746L140.088,149.43L140.067,149.112L140.047,148.792L140.03,148.47L140.014,148.146L140.001,147.821L139.99,147.494L139.981,147.165L139.974,146.834L139.97,146.502L139.967,146.168L139.967,145.834L139.989,145.662L140.056,145.501L140.161,145.363L140.299,145.257L140.46,145.19L140.633,145.167L140.805,145.189L140.966,145.256L141.104,145.362L141.21,145.5L141.277,145.66L141.3,145.833L141.3,146.162L141.303,146.488L141.307,146.811L141.314,147.133L141.323,147.453L141.334,147.771L141.346,148.088L141.361,148.402L141.378,148.715L141.397,149.026L141.418,149.335L141.441,149.642L141.466,149.948L141.493,150.251L141.521,150.553L141.552,150.853L141.585,151.151L141.619,151.447L141.656,151.742L141.694,152.034L141.735,152.325L141.777,152.613L141.821,152.9L141.867,153.185L141.914,153.468L141.964,153.749L142.015,154.029L142.068,154.306L142.123,154.581L142.18,154.855L142.238,155.127L142.298,155.397L142.36,155.664L142.424,155.93L142.489,156.194L142.556,156.457L142.625,156.717L142.696,156.975L142.768,157.231L142.841,157.486L142.917,157.738L142.994,157.989L143.072,158.237L143.153,158.484L143.234,158.729L143.318,158.971L143.403,159.212L143.489,159.451L143.577,159.688L143.667,159.923L143.758,160.156L143.851,160.387L143.945,160.616L144.041,160.843L144.138,161.068L144.236,161.291L144.336,161.512L144.438,161.731L144.541,161.948L144.645,162.163L144.751,162.376L144.858,162.587L144.966,162.796L145.076,163.003L145.187,163.208L145.3,163.411L145.414,163.612L145.529,163.811L145.645,164.008L145.763,164.203L145.882,164.395L146.002,164.586L146.124,164.775L146.247,164.962L146.371,165.146L146.496,165.329L146.622,165.51L146.75,165.688L146.879,165.865L147.009,166.039L147.14,166.212L147.273,166.382L147.406,166.55L147.541,166.717L147.676,166.881L147.813,167.043L147.951,167.203L148.09,167.361L148.23,167.517L148.371,167.67L148.513,167.822L148.657,167.972L148.801,168.119L148.946,168.265L149.092,168.408L149.24,168.549L149.388,168.688L149.537,168.825L149.687,168.96L149.838,169.093L149.99,169.224L150.143,169.353L150.297,169.479L150.452,169.604L150.607,169.726L150.764,169.846L150.921,169.964L151.079,170.08L151.238,170.194L151.398,170.306L151.559,170.415L151.72,170.523L151.883,170.628L152.046,170.731L152.21,170.832L152.374,170.931L152.54,171.028L152.706,171.123L152.873,171.215L153.041,171.306L153.209,171.394L153.378,171.48L153.548,171.564L153.718,171.645L153.889,171.725L154.061,171.802L154.233,171.878L154.407,171.951L154.58,172.022L154.755,172.091L154.93,172.157L155.105,172.222L155.281,172.284L155.458,172.344L155.636,172.402L155.813,172.458L155.992,172.511L156.171,172.562L156.351,172.612L156.531,172.658L156.711,172.703L156.892,172.746L157.074,172.786L157.256,172.824L157.439,172.86L157.622,172.894L157.806,172.925L157.99,172.954L158.174,172.982L158.359,173.006L158.544,173.029L158.73,173.049L158.916,173.067L159.103,173.083L159.29,173.097L159.477,173.108L159.665,173.117L159.853,173.124L160.041,173.129L160.23,173.131L160.419,173.131L160.609,173.129L160.798,173.124L160.988,173.117L161.179,173.108L161.369,173.097L161.56,173.083L161.752,173.067L161.943,173.049L162.135,173.028L162.327,173.005L162.519,172.98L162.711,172.952L162.904,172.923L163.097,172.89L163.29,172.856L163.483,172.819L163.676,172.78L163.87,172.738L164.063,172.694L164.257,172.648L164.451,172.599L164.645,172.548L164.839,172.494L165.034,172.438L165.228,172.38L165.423,172.32L165.617,172.257L165.812,172.191L166.006,172.123L166.201,172.053L166.396,171.98L166.59,171.905L166.785,171.828L166.98,171.748L167.175,171.665L167.369,171.58L167.564,171.493L167.759,171.403L167.953,171.311L168.148,171.216L168.342,171.119L168.536,171.019L168.73,170.917L168.925,170.813L169.119,170.706L169.312,170.596L169.506,170.484L169.7,170.369L169.893,170.252L170.086,170.132L170.279,170.01L170.472,169.886L170.664,169.758L170.857,169.628L171.049,169.496L171.241,169.361L171.432,169.224L171.624,169.084L171.815,168.941L172.005,168.796L172.196,168.649L172.386,168.498L172.576,168.345L172.765,168.19L172.954,168.032L173.143,167.871L173.331,167.708L173.519,167.542L173.707,167.374L173.894,167.203L174.081,167.029L174.267,166.853L174.453,166.674L174.638,166.492L174.823,166.308L175.008,166.121L175.192,165.932L175.375,165.74L175.558,165.545L175.74,165.347L175.922,165.147L176.103,164.944L176.284,164.739L176.464,164.531L176.644,164.32L176.823,164.106L177.001,163.89L177.179,163.671L177.356,163.45L177.532,163.225L177.708,162.998L177.883,162.769L178.057,162.536L178.231,162.301L178.404,162.063L178.551,161.858L178.698,161.652L178.844,161.444L178.989,161.235L179.134,161.025L179.279,160.814L179.422,160.602L179.565,160.389L179.708,160.175L179.85,159.959L179.991,159.743L180.132,159.525L180.272,159.306L180.411,159.086L180.55,158.865L180.688,158.643L180.826,158.42L180.963,158.196L181.1,157.971L181.236,157.744L181.371,157.517L181.506,157.288L181.64,157.059L181.774,156.828L181.907,156.597L182.04,156.364L182.172,156.131L182.303,155.896L182.434,155.661L182.564,155.424L182.694,155.186L182.823,154.948L182.952,154.708L183.08,154.468L183.208,154.226L183.335,153.984L183.461,153.741L183.587,153.496L183.712,153.251L183.837,153.005L183.961,152.758L184.085,152.509L184.208,152.26L184.331,152.011L184.453,151.76L184.575,151.508L184.696,151.255L184.817,151.002L184.937,150.748L185.056,150.492L185.175,150.236L185.294,149.979L185.412,149.721L185.529,149.463L185.646,149.203L185.763,148.943L185.879,148.682L185.994,148.42L186.109,148.157L186.224,147.893L186.338,147.629L186.451,147.364L186.564,147.098L186.676,146.831L186.788,146.563L186.9,146.295L187.122,145.756L187.341,145.213L187.559,144.668L187.775,144.12L187.989,143.569L188.201,143.016L188.411,142.459L188.619,141.9L188.826,141.338L189.031,140.774L189.234,140.206L189.435,139.637L189.635,139.065L189.833,138.49L190.029,137.913L190.223,137.334L190.416,136.752L190.607,136.168L190.797,135.582L190.984,134.994L191.171,134.404L191.355,133.811L191.538,133.217L191.72,132.621L191.9,132.023L192.078,131.423L192.255,130.821L192.431,130.217L192.605,129.612L192.778,129.005L192.949,128.397L193.118,127.787L193.287,127.175L193.454,126.562L193.619,125.948L193.784,125.332L193.946,124.715L194.108,124.097L194.268,123.478L194.427,122.857L194.585,122.235L194.742,121.612L194.897,120.989L195.051,120.364L195.204,119.738L195.356,119.112L195.506,118.484L195.656,117.856L195.804,117.227L195.951,116.598L196.097,115.968L196.243,115.337L196.387,114.706L196.53,114.074L196.672,113.442L196.813,112.81L196.953,112.177L197.092,111.544L197.23,110.911L197.367,110.277L197.503,109.644L197.638,109.01L197.773,108.376L197.907,107.743L198.039,107.109L198.171,106.476L198.303,105.843L198.563,104.577L198.82,103.312L199.074,102.049L199.325,100.788L199.574,99.529L199.821,98.274L200.065,97.021L200.307,95.772L200.547,94.527L200.785,93.287L201.256,90.82L201.721,88.376L202.182,85.957L202.411,84.758L202.64,83.567L202.867,82.383L203.095,81.208L203.322,80.041L203.548,78.883L203.775,77.735L204.002,76.596L204.229,75.468L204.457,74.35L204.685,73.244L204.8,72.694L204.914,72.148L205.029,71.605L205.144,71.064L205.259,70.527L205.375,69.993L205.49,69.462L205.606,68.934L205.723,68.409L205.84,67.888L205.957,67.369L206.074,66.855L206.192,66.343L206.31,65.835L206.429,65.331L206.548,64.83L206.668,64.333L206.788,63.839L206.909,63.349L207.03,62.863L207.152,62.38L207.274,61.902L207.397,61.427L207.52,60.956L207.644,60.49L207.769,60.027L207.894,59.568L208.021,59.114L208.147,58.663L208.275,58.217L208.403,57.775L208.532,57.337L208.662,56.904L208.792,56.475L208.924,56.051L209.056,55.631L209.189,55.215L209.323,54.804L209.458,54.398L209.593,53.997L209.73,53.6L209.868,53.208L210.006,52.82L210.146,52.438L210.286,52.06L210.428,51.688L210.571,51.32L210.715,50.957L210.86,50.6L211.006,50.248L211.079,50.073L211.153,49.9L211.227,49.728L211.302,49.558L211.376,49.389L211.451,49.221L211.527,49.054L211.602,48.889L211.678,48.726L211.755,48.563L211.831,48.402L211.908,48.242L211.986,48.084L212.063,47.927L212.141,47.771L212.219,47.617L212.298,47.464L212.377,47.312L212.456,47.162L212.536,47.013L212.616,46.866L212.697,46.72L212.777,46.575L212.859,46.432L212.94,46.29L213.022,46.15L213.104,46.011L213.187,45.874L213.27,45.738L213.354,45.603L213.438,45.47L213.522,45.338L213.607,45.208L213.692,45.079L213.778,44.952L213.864,44.826L213.95,44.702L214.037,44.579L214.124,44.458L214.212,44.338L214.3,44.22L214.389,44.103L214.478,43.988L214.568,43.874L214.658,43.762L214.749,43.652L214.84,43.543L214.932,43.435L215.024,43.329L215.116,43.225L215.209,43.122L215.303,43.021L215.397,42.921L215.492,42.823L215.587,42.727L215.683,42.632L215.779,42.539L215.876,42.448L215.974,42.358L216.072,42.27L216.171,42.184L216.27,42.099L216.37,42.016L216.47,41.935L216.571,41.855L216.672,41.777L216.775,41.701L216.877,41.627L216.981,41.554L217.085,41.483L217.189,41.414L217.295,41.347L217.4,41.282L217.507,41.218L217.614,41.156L217.722,41.096L217.83,41.038L217.939,40.982L218.049,40.928L218.159,40.876L218.27,40.826L218.381,40.777L218.493,40.731L218.606,40.686L218.719,40.644L218.833,40.604L218.947,40.565L219.063,40.529L219.178,40.494L219.294,40.462L219.411,40.432L219.528,40.404L219.646,40.378L219.765,40.354L219.884,40.332L220.003,40.312L220.123,40.295L220.244,40.279L220.365,40.266L220.486,40.255L220.608,40.246L220.73,40.239L220.853,40.234L220.975,40.232L221.072,40.231L221.168,40.232Z" style="fill:rgb(40,40,63);"/>
    </g>
    <g id="Stecker" transform="matrix(1,0,0,1,-29.5168,-183.94)">
        <g transform="matrix(0.402512,0,0,0.402512,-94.1214,112.779)">
            <path d="M732.266,277.878L732.266,303.384C732.266,304.481 733.156,305.372 734.254,305.372C735.352,305.372 736.242,304.481 736.242,303.384L736.242,277.878L732.266,277.878Z" style="fill:rgb(251,176,65);fill-rule:nonzero;"/>
        </g>
        <g transform="matrix(0.402512,0,0,0.402512,-94.1214,112.779)">
            <rect x="732.266" y="299.539" width="3.976" height="0.423" style="fill:rgb(139,95,60);fill-rule:nonzero;"/>
        </g>
        <g transform="matrix(0.402512,0,0,0.402512,-94.1214,112.779)">
            <rect x="732.266" y="295.026" width="3.976" height="0.423" style="fill:rgb(139,95,60);fill-rule:nonzero;"/>
        </g>
        <g transform="matrix(0.402512,0,0,0.402512,-94.1214,112.779)">
            <rect x="732.266" y="290.514" width="3.976" height="0.423" style="fill:rgb(139,95,60);fill-rule:nonzero;"/>
        </g>
        <g transform="matrix(0.402512,0,0,0.402512,-94.1214,112.779)">
            <rect x="732.266" y="286.001" width="3.976" height="0.423" style="fill:rgb(139,95,60);fill-rule:nonzero;"/>
        </g>
        <g transform="matrix(0.402512,0,0,0.402512,-94.1214,112.779)">
            <path d="M730.217,280.886L738.293,280.886L738.293,252.001L737.269,252.001L737.269,247.979C737.269,246.315 735.919,244.966 734.255,244.966C732.591,244.966 731.241,246.315 731.241,247.979L731.241,252.001L730.217,252.001L730.217,280.886Z" style="fill:rgb(40,40,63);fill-rule:nonzero;"/>
        </g>
    </g>
    <g id="Kopfhörer" transform="matrix(0.607706,0,0,0.607706,0,0)">
        <g transform="matrix(1,0,0,1,94.432,151.979)">
            <path d="M0,-148.819C-52.07,-148.819 -94.432,-105.595 -94.432,-52.466C-94.432,-33.783 -89.16,-15.638 -79.188,0L-69.811,-5.978C-78.643,-19.828 -83.311,-35.904 -83.311,-52.466C-83.311,-99.464 -45.938,-137.698 0,-137.698C45.938,-137.698 83.312,-99.464 83.312,-52.466C83.312,-35.904 78.643,-19.828 69.811,-5.978L79.188,0C89.161,-15.638 94.432,-33.783 94.432,-52.466C94.432,-105.595 52.07,-148.819 0,-148.819" style="fill:rgb(69,178,157);fill-rule:nonzero;"/>
        </g>
        <g transform="matrix(1,0,0,1,13.4183,149.322)">
            <path d="M0,-16.903C-2.115,-15.664 -4.689,-15.185 -7.196,-15.419C-4.834,-9.123 -1.822,-3.064 1.826,2.658L11.203,-3.321C7.928,-8.458 5.229,-13.901 3.124,-19.561C2.288,-18.546 1.257,-17.639 0,-16.903" style="fill:rgb(47,154,130);fill-rule:nonzero;"/>
        </g>
        <g transform="matrix(1,0,0,1,94.432,33.3384)">
            <path d="M0,-30.178C-22.137,-30.178 -42.515,-22.363 -58.633,-9.299C-58.302,-9.141 -57.971,-8.974 -57.639,-8.78C-54.835,-7.137 -52.614,-3.884 -51.881,-0.441C-37.635,-12.076 -19.604,-19.057 0,-19.057C19.854,-19.057 38.1,-11.905 52.429,0C53.011,-3.791 55.347,-7.369 58.628,-9.303C42.511,-22.365 22.134,-30.178 0,-30.178" style="fill:rgb(47,154,130);fill-rule:nonzero;"/>
        </g>
        <g transform="matrix(1,0,0,1,172.94,151.98)">
            <path d="M0,-23.966C-2.185,-17.679 -5.087,-11.641 -8.697,-5.979L0.681,0C5.355,-7.331 8.982,-15.218 11.532,-23.447C7.866,-21.871 3.41,-22.041 0,-23.966" style="fill:rgb(47,154,130);fill-rule:nonzero;"/>
        </g>
        <g transform="matrix(1,0,0,1,36.7855,159.561)">
            <path d="M0,-22.579L-21.066,-22.579C-27.208,-22.579 -32.188,-17.6 -32.188,-11.459L-32.188,-11.12C-32.188,-4.979 -27.208,0 -21.066,0L0,0L0,-22.579Z" style="fill:rgb(51,77,92);fill-rule:nonzero;"/>
        </g>
        <g transform="matrix(1,0,0,1,24.9134,159.561)">
            <path d="M0,-22.579C1.557,-14.286 -3.113,-4.617 -14.03,-4.617C-15.722,-4.617 -17.255,-4.859 -18.646,-5.282C-16.687,-2.116 -13.191,0 -9.194,0L11.872,0L11.872,-22.579L0,-22.579Z" style="fill:rgb(33,53,66);fill-rule:nonzero;"/>
        </g>
        <g transform="matrix(1,0,0,1,73.5316,148.271)">
            <path d="M0,0.001C0,17.645 -12.151,31.946 -27.141,31.946C-42.131,31.946 -54.281,17.645 -54.281,0.001C-54.281,-17.645 -42.131,-31.945 -27.141,-31.945C-12.151,-31.945 0,-17.645 0,0.001" style="fill:rgb(239,201,76);fill-rule:nonzero;"/>
        </g>
        <g transform="matrix(1,0,0,1,46.391,180.217)">
            <path d="M0,-63.892C-0.55,-63.892 -1.095,-63.867 -1.636,-63.83C3.493,-58.75 6.707,-51.741 6.707,-44.091C6.707,-28.892 -5.976,-16.209 -21.175,-16.209C-22.018,-16.209 -22.851,-16.254 -23.676,-16.33C-19.027,-6.587 -10.17,0 0,0C14.989,0 27.141,-14.302 27.141,-31.946C27.141,-49.591 14.989,-63.892 0,-63.892" style="fill:rgb(232,182,52);fill-rule:nonzero;"/>
        </g>
        <g transform="matrix(1,0,0,1,78.5785,117.358)">
            <path d="M0,61.826C0,67.968 -4.979,72.946 -11.121,72.946L-26.351,72.946C-32.492,72.946 -37.471,67.968 -37.471,61.826L-37.471,0.001C-37.471,-6.141 -32.492,-11.12 -26.351,-11.12L-11.121,-11.12C-4.979,-11.12 0,-6.141 0,0.001L0,61.826Z" style="fill:rgb(51,77,92);fill-rule:nonzero;"/>
        </g>
        <g transform="matrix(1,0,0,1,67.5218,190.301)">
            <path d="M0,-84.061L0,0C6.112,-0.036 11.057,-4.998 11.057,-11.118L11.057,-72.943C11.057,-79.063 6.112,-84.026 0,-84.061" style="fill:rgb(69,178,157);fill-rule:nonzero;"/>
        </g>
        <g transform="matrix(1,0,0,1,152.079,159.561)">
            <path d="M0,-22.579L21.065,-22.579C27.207,-22.579 32.187,-17.6 32.187,-11.459L32.187,-11.12C32.187,-4.979 27.207,0 21.065,0L0,0L0,-22.579Z" style="fill:rgb(51,77,92);fill-rule:nonzero;"/>
        </g>
        <g transform="matrix(1,0,0,1,174.827,142.596)">
            <path d="M0,11.349C-9.904,11.349 -13.369,1.378 -10.409,-5.615L-22.748,-5.615L-22.748,16.964L-1.683,16.964C4.223,16.964 9.04,12.357 9.403,6.543C7.545,9.361 4.416,11.349 0,11.349" style="fill:rgb(33,53,66);fill-rule:nonzero;"/>
        </g>
        <g transform="matrix(1,0,0,1,115.332,148.271)">
            <path d="M0,0.001C0,17.645 12.151,31.946 27.141,31.946C42.13,31.946 54.282,17.645 54.282,0.001C54.282,-17.645 42.13,-31.945 27.141,-31.945C12.151,-31.945 0,-17.645 0,0.001" style="fill:rgb(239,201,76);fill-rule:nonzero;"/>
        </g>
        <g transform="matrix(1,0,0,1,139.909,156.707)">
            <path d="M0,13.627C-8.91,13.627 -17.027,9.643 -22.647,3.389C-18.653,15.176 -8.875,23.51 2.564,23.51C17.554,23.51 29.706,9.208 29.706,-8.435C29.706,-8.921 29.693,-9.402 29.675,-9.883C26.438,3.467 14.23,13.627 0,13.627" style="fill:rgb(232,182,52);fill-rule:nonzero;"/>
        </g>
        <g transform="matrix(1,0,0,1,110.284,117.358)">
            <path d="M0,61.826C0,67.968 4.98,72.946 11.121,72.946L26.352,72.946C32.492,72.946 37.473,67.968 37.473,61.826L37.473,0.001C37.473,-6.141 32.492,-11.12 26.352,-11.12L11.121,-11.12C4.98,-11.12 0,-6.141 0,0.001L0,61.826Z" style="fill:rgb(51,77,92);fill-rule:nonzero;"/>
        </g>
        <g transform="matrix(-0.989251,-0.146226,-0.146226,0.989251,104.199,189.046)">
            <path d="M-4.578,-84.368C1.312,-83.313 5.343,-77.769 4.462,-71.807L-4.578,-10.646C-5.459,-4.685 -10.923,-0.544 -16.866,-1.24L-4.578,-84.368Z" style="fill:rgb(69,178,157);fill-rule:nonzero;"/>
        </g>
        <g transform="matrix(1,0,0,1,150.423,7.82627)">
            <path d="M0,9.815C-33.297,-13.729 -78.83,-13.709 -112.099,9.889C-106.335,12.421 -101.842,17.449 -100.046,23.544C-73.714,5.827 -38.55,5.769 -12.168,23.378C-10.322,17.301 -5.79,12.3 0,9.815" style="fill:rgb(223,90,73);fill-rule:nonzero;"/>
        </g>
        <g transform="matrix(1,0,0,1,140.364,31.2052)">
            <path d="M0,-19.767C0.154,-13.74 -3.649,-7.528 -11.421,-7.41C-13.114,-7.384 -14.803,-7.444 -16.489,-7.536C-11.495,-5.547 -6.669,-3.044 -2.108,0C-0.263,-6.078 4.27,-11.079 10.06,-13.564C6.815,-15.857 3.453,-17.92 0,-19.767" style="fill:rgb(210,64,50);fill-rule:nonzero;"/>
        </g>
    </g>
    <g id="bluetooth-icon" serif:id="bluetooth icon" transform="matrix(0.43224,0,0,0.43224,230.361,29.2275)">
        <path d="M96.772,0C60.984,0 31.866,29.114 31.866,64.906L31.866,128.638C31.862,164.423 60.984,193.544 96.772,193.544C132.56,193.544 161.678,164.423 161.678,128.638L161.678,64.906C161.678,29.114 132.561,0 96.772,0Z" style="fill:url(#_Linear1);fill-rule:nonzero;"/>
        <path d="M79.28,82.672L121.962,125.355L93.442,153.422L93.265,39.824L121.716,68.007L78.82,111.483" style="fill:none;stroke:white;stroke-width:11.46px;"/>
    </g>
    <g id="bluetooth-bar-back" serif:id="bluetooth bar back" transform="matrix(1,0,0,1,6.80497,-3.43229)">
        <path d="M290.949,39.803L246.232,114.251L239.374,110.132L284.091,35.684L290.949,39.803Z" style="fill:white;"/>
    </g>
    <g id="bluetooth-bar" serif:id="bluetooth bar" transform="matrix(1,0,0,1,6.80497,-3.43229)">
        <path d="M242.803,112.191L287.52,37.744" style="fill:none;stroke:rgb(255,39,0);stroke-width:2.92px;stroke-linecap:butt;stroke-linejoin:miter;"/>
    </g>
    <defs>
        <linearGradient id="_Linear1" x1="0" y1="0" x2="1" y2="0" gradientUnits="userSpaceOnUse" gradientTransform="matrix(38.2016,127.605,-127.605,38.2016,78.4802,34.8698)"><stop offset="0" style="stop-color:rgb(101,96,242);stop-opacity:1"/><stop offset="1" style="stop-color:rgb(83,65,234);stop-opacity:1"/></linearGradient>
    </defs>
</svg>
