<?xml version="1.0" encoding="UTF-8" standalone="no"?>
<!DOCTYPE svg PUBLIC "-//W3C//DTD SVG 1.1//EN" "http://www.w3.org/Graphics/SVG/1.1/DTD/svg11.dtd">
<svg width="100%" height="100%" viewBox="0 0 512 512" version="1.1" xmlns="http://www.w3.org/2000/svg" xmlns:xlink="http://www.w3.org/1999/xlink" xml:space="preserve" xmlns:serif="http://www.serif.com/" style="fill-rule:evenodd;clip-rule:evenodd;stroke-linejoin:round;stroke-miterlimit:1.41421;">
    <g>
        <g transform="matrix(0.70463,0,0,0.70463,75.6148,75.6148)">
            <path d="M256,0C114.446,0 0,114.446 0,256C0,397.554 114.446,512 256,512C397.554,512 512,397.554 512,256C512,114.446 397.554,0 256,0ZM256,481.883C132.517,481.883 30.117,379.483 30.117,256C30.117,132.517 132.517,30.117 256,30.117C379.483,30.117 481.883,132.517 481.883,256C481.883,379.483 379.483,481.883 256,481.883Z" style="fill:white;fill-rule:nonzero;"/>
        </g>
        <g transform="matrix(0.980063,0,0,0.980063,5.10381,5.10333)">
            <path d="M331.294,240.942L271.06,240.942L271.06,180.708C271.06,171.673 265.036,165.648 256,165.648C246.965,165.648 240.94,171.671 240.94,180.708L240.94,240.942L180.706,240.942C171.671,240.942 165.646,246.965 165.646,256.002C165.646,265.036 171.669,271.061 180.706,271.061L240.94,271.061L240.94,331.296C240.94,340.331 246.964,346.355 256,346.355C265.035,346.355 271.06,340.332 271.06,331.296L271.06,271.061L331.294,271.061C340.329,271.061 346.354,265.038 346.354,256.002C346.354,246.965 340.329,240.942 331.294,240.942Z" style="fill:white;fill-rule:nonzero;"/>
        </g>
    </g>
</svg>
