<?xml version="1.0" encoding="UTF-8" standalone="no"?><!DOCTYPE svg PUBLIC "-//W3C//DTD SVG 1.1//EN" "http://www.w3.org/Graphics/SVG/1.1/DTD/svg11.dtd"><svg width="100%" height="100%" viewBox="0 0 188 371" version="1.1" xmlns="http://www.w3.org/2000/svg" xmlns:xlink="http://www.w3.org/1999/xlink" xml:space="preserve" xmlns:serif="http://www.serif.com/" style="fill-rule:evenodd;clip-rule:evenodd;stroke-linejoin:round;stroke-miterlimit:1.41421;"><rect x="6.521" y="37.59" width="174.75" height="286.5" style="fill:#fff;fill-rule:nonzero;"/><path d="M179.604,322.563c-0.75,0.326 -1.015,0.59 -1.341,0.59l-169.477,0c-0.327,0 -0.59,-0.264 -0.59,-0.59l0,-282.154c0,-0.326 0.263,-0.59 0.59,-0.59l169.477,0c0.326,0 0.591,0.264 1.341,0.59l0,282.154Zm-15.275,-322.563l-141.621,0c-12.542,0 -22.708,10.673 -22.708,23.836l0,322.616c0,13.164 10.166,23.836 22.708,23.836l141.621,0c12.541,0 22.707,-10.672 22.707,-23.836l0,-322.616c0,-13.163 -10.166,-23.836 -22.707,-23.836Z" style="fill:#333;fill-rule:nonzero;"/><path d="M178.263,323.153c0.002,0 0.003,0 0.005,0c-0.002,0 -0.003,0 -0.005,0Zm0.006,0c0.226,-0.002 0.416,-0.135 0.514,-0.324l0,0.147c-0.203,0.108 -0.351,0.176 -0.514,0.177Zm-170.073,-0.59l0,-282.154c0,-0.326 0.263,-0.59 0.59,-0.59l169.482,0c-0.001,0 -0.003,0 -0.005,0l-169.477,0c-0.327,0 -0.59,0.264 -0.59,0.59l0,282.154Zm170.587,-282.421c-0.098,-0.188 -0.288,-0.321 -0.514,-0.323c0.163,0.001 0.311,0.069 0.514,0.177l0,0.146Z" style="fill:#484848;fill-rule:nonzero;"/><path d="M157.545,364.057l-128.197,0c-11.729,0 -21.238,-9.509 -21.238,-21.237l0,-317.373c0,-11.729 9.509,-21.237 21.238,-21.237l56.359,0l8.981,35.564l84.011,0l0,-15.582c0,-0.298 -0.008,-0.595 -0.023,-0.892c0.07,0.706 0.107,1.422 0.107,2.147l0,14.549c-0.203,-0.108 -0.351,-0.176 -0.514,-0.177l-0.001,0c-0.001,0 -0.003,0 -0.005,0l-169.477,0c-0.327,0 -0.59,0.264 -0.59,0.59l0,282.154c0,0.326 0.263,0.59 0.59,0.59l169.483,0c0.163,-0.001 0.311,-0.069 0.514,-0.177l0,19.844c0,11.728 -9.509,21.237 -21.238,21.237Zm17.141,-351.151c-2.052,-2.697 -4.725,-4.924 -7.626,-6.451c3.027,1.52 5.64,3.741 7.626,6.451Z" style="fill:#1f1f1f;fill-rule:nonzero;"/><path d="M178.676,23.3c-0.388,-3.864 -1.812,-7.422 -3.99,-10.394c2.274,2.99 3.785,6.56 3.99,10.394Zm-11.616,-16.845c-2.862,-1.436 -6.094,-2.245 -9.515,-2.245l-71.838,0l-0.004,-0.013l72.872,0c2.808,0 5.747,0.818 8.485,2.258Z" style="fill:#717171;fill-rule:nonzero;"/><path d="M178.699,39.774l-84.011,0l-8.981,-35.564l71.838,0c3.421,0 6.653,0.809 9.515,2.245c2.901,1.527 5.574,3.754 7.626,6.451c2.178,2.972 3.602,6.53 3.99,10.394c0.015,0.297 0.023,0.594 0.023,0.892l0,15.582Z" style="fill:#636363;fill-rule:nonzero;"/><path d="M91.596,15.041c0,1.062 0.861,1.926 1.926,1.926c1.064,0 1.924,-0.864 1.924,-1.926c0,-1.068 -0.86,-1.926 -1.924,-1.926c-1.065,0 -1.926,0.858 -1.926,1.926Z" style="fill:#404040;fill-rule:nonzero;"/><path d="M106.483,26.068c0,0.719 -0.659,1.244 -1.46,1.244l-23.002,0c-0.806,0 -1.461,-0.525 -1.461,-1.244c0,-0.719 0.655,-1.244 1.461,-1.244l23.002,0c0.801,0 1.46,0.525 1.46,1.244Z" style="fill:#404040;fill-rule:nonzero;"/><path d="M64.806,25.997c0,1.442 1.169,2.613 2.613,2.613c1.443,0 2.611,-1.171 2.611,-2.613c0,-1.447 -1.168,-2.612 -2.611,-2.612c-1.444,0 -2.613,1.165 -2.613,2.612Z" style="fill:#404040;fill-rule:nonzero;"/><path d="M65.529,25.997c0,1.044 0.845,1.891 1.89,1.891c1.045,0 1.889,-0.847 1.889,-1.891c0,-1.046 -0.844,-1.888 -1.889,-1.888c-1.045,0 -1.89,0.842 -1.89,1.888Z" style="fill:#595959;fill-rule:nonzero;"/><path d="M141.047,182.338c0,26.405 -21.24,47.929 -47.529,48.422c-26.29,-0.493 -47.528,-22.017 -47.528,-48.422c0,-0.102 -0.065,-19.162 -0.099,-29.753l13.839,0l0,34.525c0,18.444 14.954,33.399 33.401,33.399c0.13,0 0.643,0 0.773,0c18.447,0 33.401,-14.955 33.401,-33.399l0,-34.525l13.839,0c-0.034,10.591 -0.097,29.651 -0.097,29.753Zm7.589,-46.594l-21.331,0l0,-17.122c0,-18.446 -14.954,-33.4 -33.401,-33.4c-0.13,0 -0.643,0 -0.773,0c-18.447,0 -33.401,14.954 -33.401,33.4l0,17.122l-21.33,0c-4.65,0 -9.408,3.7 -9.408,8.35c0,0.538 0.157,37.805 0.157,38.244c0,32.694 24.159,59.85 55.563,64.559l0,21.328l-23.297,0c-4.65,0 -8.421,3.77 -8.421,8.42c0,4.652 3.771,8.421 8.421,8.421l64.205,0c4.651,0 8.422,-3.769 8.422,-8.421c0,-4.65 -3.771,-8.42 -8.422,-8.42l-23.296,0l0,-21.328c31.403,-4.709 55.562,-31.865 55.562,-64.559c0,-0.408 0.159,-37.706 0.159,-38.244c0,-4.65 -4.758,-8.35 -9.409,-8.35Z" style="fill:#3d3938;fill-rule:nonzero;"/></svg>