<?xml version="1.0" encoding="UTF-8" standalone="no"?>
<!DOCTYPE svg PUBLIC "-//W3C//DTD SVG 1.1//EN" "http://www.w3.org/Graphics/SVG/1.1/DTD/svg11.dtd">
<svg width="100%" height="100%" viewBox="0 0 1080 1920" version="1.1" xmlns="http://www.w3.org/2000/svg" xmlns:xlink="http://www.w3.org/1999/xlink" xml:space="preserve" xmlns:serif="http://www.serif.com/" style="fill-rule:evenodd;clip-rule:evenodd;stroke-linejoin:round;stroke-miterlimit:1.41421;">
    <rect id="ArtBoard1" x="0" y="0" width="1080" height="1920" style="fill:none;"/>
    <clipPath id="_clip1">
        <rect id="ArtBoard11" serif:id="ArtBoard1" x="0" y="0" width="1080" height="1920"/>
    </clipPath>
    <g clip-path="url(#_clip1)">
        <g transform="matrix(1,0,0,1,379.373,1243.9)">
            <path d="M135.6,47.9L135.8,54.5C135.8,54.5 128.6,56.2 122.6,56.2C113,56.2 108.9,51.6 108.9,40.1C108.9,28.8 113.6,23.2 122.9,23.2C132.3,23.2 136.8,27.8 136.8,37.4L136.2,43.4L117.5,43.4C117.5,47.1 119.2,48.5 123.9,48.5C129,48.5 135.6,47.9 135.6,47.9ZM356.3,47.9L356.5,54.5C356.5,54.5 349.3,56.2 343.2,56.2C333.7,56.2 329.6,51.6 329.6,40.1C329.6,28.8 334.3,23.2 343.6,23.2C353,23.2 357.4,27.8 357.4,37.4L356.8,43.4L338.2,43.4C338.2,47.1 339.9,48.5 344.6,48.5C349.8,48.5 356.3,47.9 356.3,47.9ZM302.4,47.9L302.6,54.5C302.6,54.5 295.4,56.2 289.3,56.2C279.8,56.2 275.7,51.6 275.7,40.1C275.7,28.8 280.4,23.2 289.7,23.2C299,23.2 303.5,27.8 303.5,37.4L302.9,43.4L284.3,43.4C284.3,47.1 286,48.5 290.7,48.5C295.7,48.5 302.4,47.9 302.4,47.9ZM226.5,39.7C226.5,49.4 223,56.2 211.9,56.2C200.8,56.2 197.3,49.4 197.3,39.7C197.3,30 200.8,23.2 211.9,23.2C223,23.2 226.5,30 226.5,39.7ZM56.8,48.7C61.1,48.7 61.3,46.1 61.3,40.5L61.3,23.9L69.8,23.9L69.8,40.5C69.8,51.4 67.9,56.2 58.7,56.2L53.5,56.2C44.1,56.2 42.4,51.2 42.4,40.5L42.4,23.9L50.9,23.9L50.9,40.5C50.9,46.1 51.1,48.7 55.4,48.7L56.8,48.7ZM160.3,32.3C156.6,32.3 151.5,33.5 151.5,33.5L151.5,55.5L143,55.5L143,23.9L151.5,23.9C151.5,23.9 157.2,23.2 160.3,23.2L160.3,32.3ZM327.1,32.3C323.4,32.3 318.3,33.5 318.3,33.5L318.3,55.5L309.8,55.5L309.8,23.9L318.3,23.9C318.3,23.9 324,23.2 327.1,23.2L327.1,32.3ZM390.1,55.5L381.6,55.5C381.6,55.5 377.3,56.2 374,56.2C364.4,56.2 361.7,50.4 361.7,39.3C361.7,27.8 366.2,23.2 374.7,23.2C377.1,23.2 381.6,23.9 381.6,23.9L381.6,13L390.1,14L390.1,55.5ZM381.8,47.5L381.8,31.3C381.8,31.3 378.2,30.8 375.5,30.8C372.4,30.8 370.5,33.1 370.5,39.3C370.5,45.7 371.6,48.3 375.7,48.3C378.1,48.3 381.8,47.5 381.8,47.5ZM349.1,36.8C349.1,32.3 347.7,30.6 343.6,30.6C339.5,30.6 338.2,32.5 338.2,36.8L349.1,36.8ZM295.2,36.8C295.2,32.3 293.8,30.6 289.7,30.6C285.6,30.6 284.3,32.5 284.3,36.8L295.2,36.8ZM237.2,23.9L241.1,47.9L241.4,47.9L246.3,24.5L255.3,24.5L259.9,47.9L260.5,47.9L264.2,23.9L272.6,23.9L266.7,55.5L254.3,55.5L250.6,36.2L247.1,55.5L234.6,55.5L228.8,23.9L237.2,23.9ZM217.9,39.7C217.9,33.9 216.5,30.8 211.9,30.8C207.2,30.8 205.8,33.9 205.8,39.7C205.8,45.5 207.2,48.7 211.9,48.7C216.5,48.7 217.9,45.5 217.9,39.7ZM164.8,23.9L173.3,23.9C173.3,23.9 177.4,23.2 180.5,23.2C188.9,23.2 193,27.3 193,39.5C193,52.9 188.3,56.4 178.6,56.4C176.3,56.4 173.3,55.9 173.3,55.9L173.3,67L164.8,66L164.8,23.9ZM173.3,32.1L173.3,48.3C173.3,48.3 176.3,48.7 178,48.7C183.1,48.7 184.4,46.1 184.4,39.5C184.4,33.1 182.3,31 179,31C176.6,31 173.3,32.1 173.3,32.1ZM128.2,36.8C128.2,32.3 126.8,30.6 122.7,30.6C118.7,30.6 117.3,32.5 117.3,36.8L128.2,36.8ZM76.2,23.9L84.8,23.9C84.8,23.9 88.9,23.2 92,23.2C100.4,23.2 104.5,27.3 104.5,39.5C104.5,52.9 99.8,56.4 90.1,56.4C87.7,56.4 84.8,55.9 84.8,55.9L84.8,67L76.2,66L76.2,23.9ZM84.8,32.1L84.8,48.3C84.8,48.3 87.7,48.7 89.5,48.7C94.5,48.7 95.9,46.1 95.9,39.5C95.9,33.1 93.8,31 90.4,31C88.1,31 84.8,32.1 84.8,32.1ZM34.4,31.7C34.4,31.7 26.6,30.8 22.9,30.8C19.2,30.8 18.4,31.5 18.4,33.3C18.4,34.6 19.6,35 24.5,35.8C32.8,37.2 35.6,39.5 35.6,45.9C35.6,53.3 30.7,56.2 22.7,56.2C18.1,56.2 10.3,54.7 10.3,54.7L10.5,47.5C10.5,47.5 18.6,48.7 21.8,48.7C25.8,48.7 26.8,47.9 26.8,46.3C26.8,45 26,44.4 21.8,43.6C13.6,42.2 9.9,40.3 9.9,33.5C9.9,26.1 15.5,23.2 22.1,23.2C26.6,23.2 34.4,24.7 34.4,24.7L34.4,31.7Z" style="fill:rgb(133,194,220);fill-rule:nonzero;"/>
        </g>
        <g id="spwr_txt" transform="matrix(1,0,0,1,379.373,1239.9)">
            <path d="M135.6,47.9L135.8,54.5C135.8,54.5 128.6,56.2 122.6,56.2C113,56.2 108.9,51.6 108.9,40.1C108.9,28.8 113.6,23.2 122.9,23.2C132.3,23.2 136.8,27.8 136.8,37.4L136.2,43.4L117.5,43.4C117.5,47.1 119.2,48.5 123.9,48.5C129,48.5 135.6,47.9 135.6,47.9ZM356.3,47.9L356.5,54.5C356.5,54.5 349.3,56.2 343.2,56.2C333.7,56.2 329.6,51.6 329.6,40.1C329.6,28.8 334.3,23.2 343.6,23.2C353,23.2 357.4,27.8 357.4,37.4L356.8,43.4L338.2,43.4C338.2,47.1 339.9,48.5 344.6,48.5C349.8,48.5 356.3,47.9 356.3,47.9ZM302.4,47.9L302.6,54.5C302.6,54.5 295.4,56.2 289.3,56.2C279.8,56.2 275.7,51.6 275.7,40.1C275.7,28.8 280.4,23.2 289.7,23.2C299,23.2 303.5,27.8 303.5,37.4L302.9,43.4L284.3,43.4C284.3,47.1 286,48.5 290.7,48.5C295.7,48.5 302.4,47.9 302.4,47.9ZM226.5,39.7C226.5,49.4 223,56.2 211.9,56.2C200.8,56.2 197.3,49.4 197.3,39.7C197.3,30 200.8,23.2 211.9,23.2C223,23.2 226.5,30 226.5,39.7ZM56.8,48.7C61.1,48.7 61.3,46.1 61.3,40.5L61.3,23.9L69.8,23.9L69.8,40.5C69.8,51.4 67.9,56.2 58.7,56.2L53.5,56.2C44.1,56.2 42.4,51.2 42.4,40.5L42.4,23.9L50.9,23.9L50.9,40.5C50.9,46.1 51.1,48.7 55.4,48.7L56.8,48.7ZM160.3,32.3C156.6,32.3 151.5,33.5 151.5,33.5L151.5,55.5L143,55.5L143,23.9L151.5,23.9C151.5,23.9 157.2,23.2 160.3,23.2L160.3,32.3ZM327.1,32.3C323.4,32.3 318.3,33.5 318.3,33.5L318.3,55.5L309.8,55.5L309.8,23.9L318.3,23.9C318.3,23.9 324,23.2 327.1,23.2L327.1,32.3ZM390.1,55.5L381.6,55.5C381.6,55.5 377.3,56.2 374,56.2C364.4,56.2 361.7,50.4 361.7,39.3C361.7,27.8 366.2,23.2 374.7,23.2C377.1,23.2 381.6,23.9 381.6,23.9L381.6,13L390.1,14L390.1,55.5ZM381.8,47.5L381.8,31.3C381.8,31.3 378.2,30.8 375.5,30.8C372.4,30.8 370.5,33.1 370.5,39.3C370.5,45.7 371.6,48.3 375.7,48.3C378.1,48.3 381.8,47.5 381.8,47.5ZM349.1,36.8C349.1,32.3 347.7,30.6 343.6,30.6C339.5,30.6 338.2,32.5 338.2,36.8L349.1,36.8ZM295.2,36.8C295.2,32.3 293.8,30.6 289.7,30.6C285.6,30.6 284.3,32.5 284.3,36.8L295.2,36.8ZM237.2,23.9L241.1,47.9L241.4,47.9L246.3,24.5L255.3,24.5L259.9,47.9L260.5,47.9L264.2,23.9L272.6,23.9L266.7,55.5L254.3,55.5L250.6,36.2L247.1,55.5L234.6,55.5L228.8,23.9L237.2,23.9ZM217.9,39.7C217.9,33.9 216.5,30.8 211.9,30.8C207.2,30.8 205.8,33.9 205.8,39.7C205.8,45.5 207.2,48.7 211.9,48.7C216.5,48.7 217.9,45.5 217.9,39.7ZM164.8,23.9L173.3,23.9C173.3,23.9 177.4,23.2 180.5,23.2C188.9,23.2 193,27.3 193,39.5C193,52.9 188.3,56.4 178.6,56.4C176.3,56.4 173.3,55.9 173.3,55.9L173.3,67L164.8,66L164.8,23.9ZM173.3,32.1L173.3,48.3C173.3,48.3 176.3,48.7 178,48.7C183.1,48.7 184.4,46.1 184.4,39.5C184.4,33.1 182.3,31 179,31C176.6,31 173.3,32.1 173.3,32.1ZM128.2,36.8C128.2,32.3 126.8,30.6 122.7,30.6C118.7,30.6 117.3,32.5 117.3,36.8L128.2,36.8ZM76.2,23.9L84.8,23.9C84.8,23.9 88.9,23.2 92,23.2C100.4,23.2 104.5,27.3 104.5,39.5C104.5,52.9 99.8,56.4 90.1,56.4C87.7,56.4 84.8,55.9 84.8,55.9L84.8,67L76.2,66L76.2,23.9ZM84.8,32.1L84.8,48.3C84.8,48.3 87.7,48.7 89.5,48.7C94.5,48.7 95.9,46.1 95.9,39.5C95.9,33.1 93.8,31 90.4,31C88.1,31 84.8,32.1 84.8,32.1ZM34.4,31.7C34.4,31.7 26.6,30.8 22.9,30.8C19.2,30.8 18.4,31.5 18.4,33.3C18.4,34.6 19.6,35 24.5,35.8C32.8,37.2 35.6,39.5 35.6,45.9C35.6,53.3 30.7,56.2 22.7,56.2C18.1,56.2 10.3,54.7 10.3,54.7L10.5,47.5C10.5,47.5 18.6,48.7 21.8,48.7C25.8,48.7 26.8,47.9 26.8,46.3C26.8,45 26,44.4 21.8,43.6C13.6,42.2 9.9,40.3 9.9,33.5C9.9,26.1 15.5,23.2 22.1,23.2C26.6,23.2 34.4,24.7 34.4,24.7L34.4,31.7Z" style="fill:white;"/>
        </g>
        <g transform="matrix(9.8217,0,0,9.8217,345.957,506.145)">
            <path d="M32.581,20.759C32.58,20.773 32.585,20.784 32.584,20.799C32.34,23.109 31.431,25.717 29.882,28.546C29.224,29.748 28.98,30.739 28.702,31.888C28.373,33.231 27.999,34.756 26.885,36.984C26.117,38.519 23.927,39.557 21.55,39.557C21.37,39.557 21.188,39.55 21.006,39.538C18.499,39.37 16.657,38.089 15.949,36.024C15.693,35.593 13.146,30.993 14.657,28.949C15.31,28.07 16.547,27.824 18.339,28.229C19.122,28.405 19.404,29.466 19.73,30.697C19.951,31.533 20.335,32.903 20.746,32.895C20.845,32.895 22.002,32.973 22.359,32.364C22.56,32.024 22.683,31.133 21.26,29.013C21.115,28.796 21.156,28.506 21.353,28.337C22.227,27.594 24.32,25.311 23.531,23.702C23.313,23.258 22.53,22.635 21.631,22.633C20.711,22.645 19.893,23.372 19.268,24.736C19.184,24.918 19.002,25.034 18.802,25.034C18.601,25.034 18.42,24.918 18.336,24.736C18.26,24.572 16.509,20.689 17.76,17.849C18.284,16.658 19.251,15.83 20.63,15.388C20.747,15.349 20.886,15.314 21.037,15.283C21.067,14.045 21.418,12.889 22.012,11.889C19.529,11.974 17.59,12.785 16.247,14.312C13.249,17.722 14.11,23.595 14.119,23.655C14.162,23.934 13.971,24.195 13.691,24.238C13.665,24.242 13.639,24.244 13.613,24.244C13.364,24.244 13.146,24.063 13.107,23.809C13.066,23.549 12.168,17.4 15.477,13.634C17.155,11.724 19.623,10.803 22.76,10.853C24.045,9.38 25.929,8.443 28.033,8.443C31.894,8.443 35.034,11.583 35.034,15.447C35.034,17.571 34.079,19.473 32.581,20.759ZM22.055,15.446C22.055,15.499 22.061,15.552 22.062,15.606C22.066,15.619 22.073,15.628 22.075,15.641C22.079,15.672 22.07,15.702 22.069,15.732C22.221,18.895 24.831,21.422 28.033,21.422C31.328,21.422 34.009,18.742 34.009,15.446C34.009,12.149 31.328,9.467 28.033,9.467C24.735,9.467 22.054,12.15 22.055,15.446ZM31.439,21.554C30.43,22.12 29.268,22.446 28.03,22.446C24.467,22.446 21.522,19.768 21.088,16.32C21.04,16.334 20.983,16.346 20.942,16.359C19.839,16.712 19.104,17.334 18.697,18.255C17.978,19.886 18.48,22.053 18.888,23.302C19.799,21.943 20.841,21.615 21.615,21.606C21.628,21.605 21.641,21.605 21.653,21.605C23.025,21.605 24.111,22.561 24.447,23.248C25.529,25.45 23.245,27.948 22.349,28.81C23.494,30.626 23.784,31.962 23.236,32.888C22.543,34.062 20.811,33.92 20.74,33.913C19.539,34.02 19.116,32.392 18.736,30.957C18.577,30.357 18.311,29.354 18.091,29.22C17.176,29.016 15.963,28.901 15.477,29.558C14.635,30.697 15.887,33.871 16.875,35.605C17.72,38.041 20.089,38.448 21.071,38.513C23.181,38.651 25.336,37.783 25.963,36.526C27.027,34.398 27.385,32.935 27.702,31.642C27.99,30.474 28.26,29.374 28.982,28.053C30.274,25.697 31.098,23.514 31.439,21.554ZM23.42,15.447C23.42,15.164 23.65,14.935 23.933,14.935L27.52,14.935L27.52,11.346C27.52,11.064 27.751,10.834 28.033,10.834C28.315,10.834 28.545,11.064 28.545,11.346L28.545,14.935L32.132,14.935C32.414,14.935 32.644,15.164 32.644,15.447C32.644,15.73 32.414,15.96 32.132,15.96L28.545,15.96L28.545,19.547C28.545,19.829 28.315,20.059 28.033,20.059C27.751,20.059 27.52,19.829 27.52,19.547L27.52,15.96L23.933,15.96C23.649,15.96 23.42,15.731 23.42,15.447Z" style="fill-rule:nonzero;stroke:white;stroke-width:0.1px;"/>
        </g>
        <g transform="matrix(1,0,0,1,462.46,997.47)">
            <path d="M125,9.4C61.2,9.4 9.4,61.2 9.4,125C9.4,188.8 61.2,240.6 125,240.6C188.8,240.6 240.6,188.8 240.6,125C240.6,61.2 188.8,9.4 125,9.4ZM125,20.6C182.5,20.6 229.4,67.5 229.4,125C229.4,133.6 228.3,141.9 226.3,149.8C226.1,149.8 225.9,149.8 225.8,149.8C219.1,151.7 211.9,152.7 204.2,152.8C202.7,150.3 200.8,142.3 199.7,137.5C196.7,124.5 194.2,113.3 185.2,113.3C176.7,113.3 173.4,122.3 170.8,129.5C170.2,131.3 169.2,133.8 168.4,135.6C166.6,128.8 165,115.2 163.9,105.5C160.3,75 158.4,62.7 149.2,62.7C140,62.7 138.3,75.3 134.5,115.5C133.6,125.3 132.3,138.4 130.9,147.8C129.8,141.3 128.7,133 128,126.6C124.4,98 122.5,85.2 113.3,85.2C103.9,85.2 101.9,98.4 98.7,120.6C97.8,127.3 96.4,136.6 95,142.2C93.9,138.8 92.8,134.1 92.2,130.8C89.2,117.7 86.7,106.4 77.7,106.4C68.4,106.4 66.1,118.8 63.1,134.2C62,140.2 60.2,149.7 58.4,152.8C49.7,152.5 31.4,150.2 22.7,143.3C22.5,143.1 22.3,143.1 22.2,143.1C21.1,137.2 20.5,131.2 20.5,125C20.6,67.5 67.5,20.6 125,20.6ZM125,229.4C79.1,229.4 40,199.4 26.1,158.1C38.6,163.1 53.7,164.4 59.8,164.4C69.1,164.4 71.4,152 74.4,136.6C75.3,132 76.6,125.3 77.8,121.1C79.1,124.7 80.2,129.8 80.9,133.4C83.9,146.6 86.4,157.8 95.5,157.8C104.8,157.8 106.9,144.5 110,122.3C110.8,116.7 111.9,109.4 113.1,103.7C114.5,110.8 115.6,120.5 116.6,128C120.2,156.7 122,169.4 131.3,169.4C140.5,169.4 142.2,156.7 145.9,116.6C146.9,106.7 148.1,93.9 149.5,84.5C150.6,91.4 151.7,100.2 152.5,106.9C156.1,137.3 158,149.7 167.2,149.7C175.6,149.7 178.9,140.6 181.6,133.4C182.3,131.1 183.6,127.5 184.5,125.8C185.9,129.1 187.5,135.8 188.4,140C191.4,153 193.9,164.2 203,164.2C209.5,164.2 216.1,163.6 222.2,162.3C207.2,201.4 169.4,229.4 125,229.4Z" style="fill:rgb(133,194,220);fill-rule:nonzero;"/>
        </g>
        <g transform="matrix(1,0,0,1,462.46,993.47)">
            <path d="M125,9.4C61.2,9.4 9.4,61.2 9.4,125C9.4,188.8 61.2,240.6 125,240.6C188.8,240.6 240.6,188.8 240.6,125C240.6,61.2 188.8,9.4 125,9.4ZM125,20.6C182.5,20.6 229.4,67.5 229.4,125C229.4,133.6 228.3,141.9 226.3,149.8C226.1,149.8 225.9,149.8 225.8,149.8C219.1,151.7 211.9,152.7 204.2,152.8C202.7,150.3 200.8,142.3 199.7,137.5C196.7,124.5 194.2,113.3 185.2,113.3C176.7,113.3 173.4,122.3 170.8,129.5C170.2,131.3 169.2,133.8 168.4,135.6C166.6,128.8 165,115.2 163.9,105.5C160.3,75 158.4,62.7 149.2,62.7C140,62.7 138.3,75.3 134.5,115.5C133.6,125.3 132.3,138.4 130.9,147.8C129.8,141.3 128.7,133 128,126.6C124.4,98 122.5,85.2 113.3,85.2C103.9,85.2 101.9,98.4 98.7,120.6C97.8,127.3 96.4,136.6 95,142.2C93.9,138.8 92.8,134.1 92.2,130.8C89.2,117.7 86.7,106.4 77.7,106.4C68.4,106.4 66.1,118.8 63.1,134.2C62,140.2 60.2,149.7 58.4,152.8C49.7,152.5 31.4,150.2 22.7,143.3C22.5,143.1 22.3,143.1 22.2,143.1C21.1,137.2 20.5,131.2 20.5,125C20.6,67.5 67.5,20.6 125,20.6ZM125,229.4C79.1,229.4 40,199.4 26.1,158.1C38.6,163.1 53.7,164.4 59.8,164.4C69.1,164.4 71.4,152 74.4,136.6C75.3,132 76.6,125.3 77.8,121.1C79.1,124.7 80.2,129.8 80.9,133.4C83.9,146.6 86.4,157.8 95.5,157.8C104.8,157.8 106.9,144.5 110,122.3C110.8,116.7 111.9,109.4 113.1,103.7C114.5,110.8 115.6,120.5 116.6,128C120.2,156.7 122,169.4 131.3,169.4C140.5,169.4 142.2,156.7 145.9,116.6C146.9,106.7 148.1,93.9 149.5,84.5C150.6,91.4 151.7,100.2 152.5,106.9C156.1,137.3 158,149.7 167.2,149.7C175.6,149.7 178.9,140.6 181.6,133.4C182.3,131.1 183.6,127.5 184.5,125.8C185.9,129.1 187.5,135.8 188.4,140C191.4,153 193.9,164.2 203,164.2C209.5,164.2 216.1,163.6 222.2,162.3C207.2,201.4 169.4,229.4 125,229.4Z" style="fill:white;"/>
        </g>
    </g>
</svg>
