<?xml version="1.0" encoding="UTF-8" standalone="no"?>
<!DOCTYPE svg PUBLIC "-//W3C//DTD SVG 1.1//EN" "http://www.w3.org/Graphics/SVG/1.1/DTD/svg11.dtd">
<svg width="100%" height="100%" viewBox="0 0 250 250" version="1.1" xmlns="http://www.w3.org/2000/svg" xmlns:xlink="http://www.w3.org/1999/xlink" xml:space="preserve" xmlns:serif="http://www.serif.com/" style="fill-rule:evenodd;clip-rule:evenodd;stroke-linejoin:round;stroke-miterlimit:1.41421;">
    <path id="logo" d="M125,9.4C61.2,9.4 9.4,61.2 9.4,125C9.4,188.8 61.2,240.6 125,240.6C188.8,240.6 240.6,188.8 240.6,125C240.6,61.2 188.8,9.4 125,9.4ZM125,20.6C182.5,20.6 229.4,67.5 229.4,125C229.4,133.6 228.3,141.9 226.3,149.8C226.1,149.8 225.9,149.8 225.8,149.8C219.1,151.7 211.9,152.7 204.2,152.8C202.7,150.3 200.8,142.3 199.7,137.5C196.7,124.5 194.2,113.3 185.2,113.3C176.7,113.3 173.4,122.3 170.8,129.5C170.2,131.3 169.2,133.8 168.4,135.6C166.6,128.8 165,115.2 163.9,105.5C160.3,75 158.4,62.7 149.2,62.7C140,62.7 138.3,75.3 134.5,115.5C133.6,125.3 132.3,138.4 130.9,147.8C129.8,141.3 128.7,133 128,126.6C124.4,98 122.5,85.2 113.3,85.2C103.9,85.2 101.9,98.4 98.7,120.6C97.8,127.3 96.4,136.6 95,142.2C93.9,138.8 92.8,134.1 92.2,130.8C89.2,117.7 86.7,106.4 77.7,106.4C68.4,106.4 66.1,118.8 63.1,134.2C62,140.2 60.2,149.7 58.4,152.8C49.7,152.5 31.4,150.2 22.7,143.3C22.5,143.1 22.3,143.1 22.2,143.1C21.1,137.2 20.5,131.2 20.5,125C20.6,67.5 67.5,20.6 125,20.6ZM125,229.4C79.1,229.4 40,199.4 26.1,158.1C38.6,163.1 53.7,164.4 59.8,164.4C69.1,164.4 71.4,152 74.4,136.6C75.3,132 76.6,125.3 77.8,121.1C79.1,124.7 80.2,129.8 80.9,133.4C83.9,146.6 86.4,157.8 95.5,157.8C104.8,157.8 106.9,144.5 110,122.3C110.8,116.7 111.9,109.4 113.1,103.7C114.5,110.8 115.6,120.5 116.6,128C120.2,156.7 122,169.4 131.3,169.4C140.5,169.4 142.2,156.7 145.9,116.6C146.9,106.7 148.1,93.9 149.5,84.5C150.6,91.4 151.7,100.2 152.5,106.9C156.1,137.3 158,149.7 167.2,149.7C175.6,149.7 178.9,140.6 181.6,133.4C182.3,131.1 183.6,127.5 184.5,125.8C185.9,129.1 187.5,135.8 188.4,140C191.4,153 193.9,164.2 203,164.2C209.5,164.2 216.1,163.6 222.2,162.3C207.2,201.4 169.4,229.4 125,229.4Z"/>
</svg>
