<?xml version="1.0" encoding="UTF-8" standalone="no"?>
<!DOCTYPE svg PUBLIC "-//W3C//DTD SVG 1.1//EN" "http://www.w3.org/Graphics/SVG/1.1/DTD/svg11.dtd">
<svg width="100%" height="100%" viewBox="0 0 1460 280" version="1.1" xmlns="http://www.w3.org/2000/svg" xmlns:xlink="http://www.w3.org/1999/xlink" xml:space="preserve" xmlns:serif="http://www.serif.com/" style="fill-rule:evenodd;clip-rule:evenodd;stroke-linejoin:round;stroke-miterlimit:1.41421;">
    <g id="logo" transform="matrix(0.905831,0,0,0.905831,41.5385,26.5385)">
        <path d="M125,9.4C61.2,9.4 9.4,61.2 9.4,125C9.4,188.8 61.2,240.6 125,240.6C188.8,240.6 240.6,188.8 240.6,125C240.6,61.2 188.8,9.4 125,9.4ZM125,20.6C182.5,20.6 229.4,67.5 229.4,125C229.4,133.6 228.3,141.9 226.3,149.8C226.1,149.8 225.9,149.8 225.8,149.8C219.1,151.7 211.9,152.7 204.2,152.8C202.7,150.3 200.8,142.3 199.7,137.5C196.7,124.5 194.2,113.3 185.2,113.3C176.7,113.3 173.4,122.3 170.8,129.5C170.2,131.3 169.2,133.8 168.4,135.6C166.6,128.8 165,115.2 163.9,105.5C160.3,75 158.4,62.7 149.2,62.7C140,62.7 138.3,75.3 134.5,115.5C133.6,125.3 132.3,138.4 130.9,147.8C129.8,141.3 128.7,133 128,126.6C124.4,98 122.5,85.2 113.3,85.2C103.9,85.2 101.9,98.4 98.7,120.6C97.8,127.3 96.4,136.6 95,142.2C93.9,138.8 92.8,134.1 92.2,130.8C89.2,117.7 86.7,106.4 77.7,106.4C68.4,106.4 66.1,118.8 63.1,134.2C62,140.2 60.2,149.7 58.4,152.8C49.7,152.5 31.4,150.2 22.7,143.3C22.5,143.1 22.3,143.1 22.2,143.1C21.1,137.2 20.5,131.2 20.5,125C20.6,67.5 67.5,20.6 125,20.6ZM125,229.4C79.1,229.4 40,199.4 26.1,158.1C38.6,163.1 53.7,164.4 59.8,164.4C69.1,164.4 71.4,152 74.4,136.6C75.3,132 76.6,125.3 77.8,121.1C79.1,124.7 80.2,129.8 80.9,133.4C83.9,146.6 86.4,157.8 95.5,157.8C104.8,157.8 106.9,144.5 110,122.3C110.8,116.7 111.9,109.4 113.1,103.7C114.5,110.8 115.6,120.5 116.6,128C120.2,156.7 122,169.4 131.3,169.4C140.5,169.4 142.2,156.7 145.9,116.6C146.9,106.7 148.1,93.9 149.5,84.5C150.6,91.4 151.7,100.2 152.5,106.9C156.1,137.3 158,149.7 167.2,149.7C175.6,149.7 178.9,140.6 181.6,133.4C182.3,131.1 183.6,127.5 184.5,125.8C185.9,129.1 187.5,135.8 188.4,140C191.4,153 193.9,164.2 203,164.2C209.5,164.2 216.1,163.6 222.2,162.3C207.2,201.4 169.4,229.4 125,229.4Z"/>
    </g>
    <g id="spwr_txt" transform="matrix(2.86226,0,0,2.86226,292.779,29.5995)">
        <path d="M135.6,47.9L135.8,54.5C135.8,54.5 128.6,56.2 122.6,56.2C113,56.2 108.9,51.6 108.9,40.1C108.9,28.8 113.6,23.2 122.9,23.2C132.3,23.2 136.8,27.8 136.8,37.4L136.2,43.4L117.5,43.4C117.5,47.1 119.2,48.5 123.9,48.5C129,48.5 135.6,47.9 135.6,47.9ZM356.3,47.9L356.5,54.5C356.5,54.5 349.3,56.2 343.2,56.2C333.7,56.2 329.6,51.6 329.6,40.1C329.6,28.8 334.3,23.2 343.6,23.2C353,23.2 357.4,27.8 357.4,37.4L356.8,43.4L338.2,43.4C338.2,47.1 339.9,48.5 344.6,48.5C349.8,48.5 356.3,47.9 356.3,47.9ZM302.4,47.9L302.6,54.5C302.6,54.5 295.4,56.2 289.3,56.2C279.8,56.2 275.7,51.6 275.7,40.1C275.7,28.8 280.4,23.2 289.7,23.2C299,23.2 303.5,27.8 303.5,37.4L302.9,43.4L284.3,43.4C284.3,47.1 286,48.5 290.7,48.5C295.7,48.5 302.4,47.9 302.4,47.9ZM226.5,39.7C226.5,49.4 223,56.2 211.9,56.2C200.8,56.2 197.3,49.4 197.3,39.7C197.3,30 200.8,23.2 211.9,23.2C223,23.2 226.5,30 226.5,39.7ZM56.8,48.7C61.1,48.7 61.3,46.1 61.3,40.5L61.3,23.9L69.8,23.9L69.8,40.5C69.8,51.4 67.9,56.2 58.7,56.2L53.5,56.2C44.1,56.2 42.4,51.2 42.4,40.5L42.4,23.9L50.9,23.9L50.9,40.5C50.9,46.1 51.1,48.7 55.4,48.7L56.8,48.7ZM160.3,32.3C156.6,32.3 151.5,33.5 151.5,33.5L151.5,55.5L143,55.5L143,23.9L151.5,23.9C151.5,23.9 157.2,23.2 160.3,23.2L160.3,32.3ZM327.1,32.3C323.4,32.3 318.3,33.5 318.3,33.5L318.3,55.5L309.8,55.5L309.8,23.9L318.3,23.9C318.3,23.9 324,23.2 327.1,23.2L327.1,32.3ZM390.1,55.5L381.6,55.5C381.6,55.5 377.3,56.2 374,56.2C364.4,56.2 361.7,50.4 361.7,39.3C361.7,27.8 366.2,23.2 374.7,23.2C377.1,23.2 381.6,23.9 381.6,23.9L381.6,13L390.1,14L390.1,55.5ZM381.8,47.5L381.8,31.3C381.8,31.3 378.2,30.8 375.5,30.8C372.4,30.8 370.5,33.1 370.5,39.3C370.5,45.7 371.6,48.3 375.7,48.3C378.1,48.3 381.8,47.5 381.8,47.5ZM349.1,36.8C349.1,32.3 347.7,30.6 343.6,30.6C339.5,30.6 338.2,32.5 338.2,36.8L349.1,36.8ZM295.2,36.8C295.2,32.3 293.8,30.6 289.7,30.6C285.6,30.6 284.3,32.5 284.3,36.8L295.2,36.8ZM237.2,23.9L241.1,47.9L241.4,47.9L246.3,24.5L255.3,24.5L259.9,47.9L260.5,47.9L264.2,23.9L272.6,23.9L266.7,55.5L254.3,55.5L250.6,36.2L247.1,55.5L234.6,55.5L228.8,23.9L237.2,23.9ZM217.9,39.7C217.9,33.9 216.5,30.8 211.9,30.8C207.2,30.8 205.8,33.9 205.8,39.7C205.8,45.5 207.2,48.7 211.9,48.7C216.5,48.7 217.9,45.5 217.9,39.7ZM164.8,23.9L173.3,23.9C173.3,23.9 177.4,23.2 180.5,23.2C188.9,23.2 193,27.3 193,39.5C193,52.9 188.3,56.4 178.6,56.4C176.3,56.4 173.3,55.9 173.3,55.9L173.3,67L164.8,66L164.8,23.9ZM173.3,32.1L173.3,48.3C173.3,48.3 176.3,48.7 178,48.7C183.1,48.7 184.4,46.1 184.4,39.5C184.4,33.1 182.3,31 179,31C176.6,31 173.3,32.1 173.3,32.1ZM128.2,36.8C128.2,32.3 126.8,30.6 122.7,30.6C118.7,30.6 117.3,32.5 117.3,36.8L128.2,36.8ZM76.2,23.9L84.8,23.9C84.8,23.9 88.9,23.2 92,23.2C100.4,23.2 104.5,27.3 104.5,39.5C104.5,52.9 99.8,56.4 90.1,56.4C87.7,56.4 84.8,55.9 84.8,55.9L84.8,67L76.2,66L76.2,23.9ZM84.8,32.1L84.8,48.3C84.8,48.3 87.7,48.7 89.5,48.7C94.5,48.7 95.9,46.1 95.9,39.5C95.9,33.1 93.8,31 90.4,31C88.1,31 84.8,32.1 84.8,32.1ZM34.4,31.7C34.4,31.7 26.6,30.8 22.9,30.8C19.2,30.8 18.4,31.5 18.4,33.3C18.4,34.6 19.6,35 24.5,35.8C32.8,37.2 35.6,39.5 35.6,45.9C35.6,53.3 30.7,56.2 22.7,56.2C18.1,56.2 10.3,54.7 10.3,54.7L10.5,47.5C10.5,47.5 18.6,48.7 21.8,48.7C25.8,48.7 26.8,47.9 26.8,46.3C26.8,45 26,44.4 21.8,43.6C13.6,42.2 9.9,40.3 9.9,33.5C9.9,26.1 15.5,23.2 22.1,23.2C26.6,23.2 34.4,24.7 34.4,24.7L34.4,31.7Z"/>
    </g>
</svg>
