<?xml version="1.0" encoding="UTF-8" standalone="no"?><!DOCTYPE svg PUBLIC "-//W3C//DTD SVG 1.1//EN" "http://www.w3.org/Graphics/SVG/1.1/DTD/svg11.dtd"><svg width="100%" height="100%" viewBox="0 0 1554 1366" version="1.1" xmlns="http://www.w3.org/2000/svg" xmlns:xlink="http://www.w3.org/1999/xlink" xml:space="preserve" xmlns:serif="http://www.serif.com/" style="fill-rule:evenodd;clip-rule:evenodd;stroke-linejoin:round;stroke-miterlimit:1.41421;"><path d="M1480.39,804.263c20.713,20.382 33.872,49.835 33.872,82.569c0,51.353 -32.209,94.681 -75.491,107.222c19.291,18.575 31.547,45.75 31.547,75.919l0,3.418c0,45.844 -28.125,84.754 -66.368,97.01c21.662,19.147 35.631,48.409 35.631,81.144l0,9.881c0,57.294 -42.663,104.134 -94.778,104.134l-524.525,0c0,0 -140.528,0.428 -166.894,-33.35c-17.056,-21.853 -48.838,-40.665 -69.125,-51.212c-11.069,-5.747 -18.719,-9.072 -18.719,-9.072l-161.047,0l0,-556.597c0,0 142.047,-9.169 228.51,-54.681c15.915,-8.36 29.928,-17.957 40.856,-28.931c70.262,-70.785 175.681,-267.038 190.362,-369.988c14.632,-102.947 -11.734,-173.731 0,-225.184c11.685,-51.497 187.369,-90.072 240.1,186.562c22.947,120.335 15.963,218.153 0.713,290.269c-3.419,16.059 -7.222,30.831 -11.163,44.325l343.522,0c22.71,0 43.947,7.222 61.856,19.715c32.685,22.66 54.538,62.757 54.538,108.172c0,53.638 -30.5,99.766 -73.397,118.675Z" style="fill:#fdc998;fill-rule:nonzero;"/><path d="M584.26,1281c-11.069,-5.747 -18.719,-9.072 -18.719,-9.072l-22.375,0l0,-99.931l0,-478.866c31.372,-7.916 63.235,-18.478 89.838,-32.481l-48.744,620.35Z" style="fill:#fbb278;fill-rule:nonzero;"/><path d="M543.166,664.26l0,647.144c0,29.928 -24.228,54.156 -54.156,54.156l-434.834,0c-33.638,0 -59.147,-30.309 -53.35,-63.469l54.821,-314.259l58.054,-332.884c4.512,-25.938 27.031,-44.847 53.35,-44.847l321.959,0c29.928,0 54.156,24.228 54.156,54.159Z" style="fill:#154a85;fill-rule:nonzero;"/><path d="M528.775,1348.18c8.935,-9.656 14.391,-22.578 14.391,-36.781l0,-39.478l0,39.478c0,14.203 -5.456,27.125 -14.391,36.781Z" style="fill:#9fb6cb;fill-rule:nonzero;"/><path d="M543.166,1271.93l0,-99.931l0,99.931Z" style="fill:#b88c66;fill-rule:nonzero;"/><path d="M489.007,1365.56l-434.831,0c-29,0 -51.96,-22.525 -54.025,-49.987c-0.275,-3.675 -0.179,-7.441 0.331,-11.25c0.097,-0.744 0.212,-1.488 0.344,-2.232l22.693,-130.096l100.122,0c-4.375,8.275 -6.853,17.709 -6.853,27.718c0,28.197 19.647,51.8 46,57.869c8.538,4.75 18.363,7.453 28.825,7.453c32.797,0 59.384,-26.587 59.384,-59.384c0,-12.497 -3.859,-24.091 -10.453,-33.656l302.622,0l0,139.409c0,14.203 -5.456,27.125 -14.391,36.781c-9.89,10.688 -24.043,17.375 -39.768,17.375Z" style="fill:#1e3b70;fill-rule:nonzero;"/><path d="M240.544,1172l-11.84,0c-5.385,-10.188 -13.647,-18.619 -23.707,-24.213c14.672,3.381 27.266,12.197 35.547,24.213Z" style="fill:#1e3b70;fill-rule:nonzero;"/><path d="M191.613,1265.04c-10.462,0 -20.287,-2.703 -28.825,-7.453c4.3,0.991 8.784,1.516 13.384,1.516c32.797,0 59.385,-26.588 59.385,-59.385l0,-0.409c0,-0.044 0,-0.091 -0.003,-0.134l0,-0.207c0,-0.022 0,-0.043 -0.003,-0.065l0,-0.181c-0.004,-0.032 -0.004,-0.066 -0.004,-0.101c0,-0.025 0,-0.05 0,-0.071c-0.003,-0.05 -0.003,-0.1 -0.003,-0.147c-0.003,-0.031 -0.003,-0.066 -0.003,-0.1c0,-0.022 0,-0.05 -0.003,-0.075c0,-0.035 0,-0.069 -0.003,-0.103c0,-0.019 0,-0.038 0,-0.057c0,-0.037 -0.003,-0.075 -0.003,-0.109c0,-0.009 0,-0.016 0,-0.025c-0.006,-0.141 -0.01,-0.275 -0.016,-0.416c0,-0.003 0,-0.006 0,-0.009c-0.334,-9.187 -2.759,-17.847 -6.812,-25.509l11.84,0c6.594,9.565 10.453,21.159 10.453,33.656c0,32.797 -26.587,59.384 -59.384,59.384Z" style="fill:#1d305f;fill-rule:nonzero;"/><path d="M235.557,1199.71c0,32.797 -26.588,59.385 -59.385,59.385c-32.796,0 -59.384,-26.588 -59.384,-59.385c0,-32.797 26.588,-59.384 59.384,-59.384c32.797,0 59.385,26.587 59.385,59.384Z" style="fill:#0c5a8e;fill-rule:nonzero;"/><path d="M235.557,1199.71c0,-0.059 0,-0.115 0,-0.172c0,0.057 0,0.116 0,0.172Zm0,-0.228c0,-0.04 0,-0.081 0,-0.122c0,0.041 0,0.082 0,0.122Zm0,-0.181c0,-0.047 0,-0.088 -0.003,-0.134c0.003,0.043 0.003,0.09 0.003,0.134Zm-0.003,-0.175c0,-0.053 0,-0.109 0,-0.166c0,0.057 0,0.113 0,0.166Zm-0.003,-0.231c0,-0.038 0,-0.072 0,-0.107c0,0.035 0,0.072 0,0.107Zm0,-0.181c-0.004,-0.035 -0.004,-0.066 -0.004,-0.101c0,0.035 0,0.069 0.004,0.101Zm-0.004,-0.172c-0.003,-0.05 -0.003,-0.097 -0.003,-0.147c0,0.047 0,0.097 0.003,0.147Zm-0.006,-0.247c0,-0.025 0,-0.05 -0.003,-0.075c0.003,0.025 0.003,0.053 0.003,0.075Zm-0.006,-0.178c0,-0.019 0,-0.038 0,-0.057c0,0.019 0,0.038 0,0.057Zm-0.003,-0.166c0,-0.009 0,-0.019 0,-0.025c0,0.009 0,0.016 0,0.025Zm-0.016,-0.441c0,0 0,-0.006 0,-0.009c0,0.003 0,0.006 0,0.009Z" style="fill:#182853;fill-rule:nonzero;"/><path d="M176.172,1259.1c-32.796,0 -59.384,-26.588 -59.384,-59.385l0.019,-0.334c8.209,15.794 24.69,26.597 43.719,26.597c27.218,0 49.281,-22.063 49.281,-49.281c0,-12.36 -4.585,-23.625 -12.1,-32.279c21.487,8.379 36.922,28.857 37.809,53.088c0,0.003 0,0.009 0,0.009c0.006,0.138 0.01,0.278 0.016,0.416c0,0.006 0,0.016 0,0.025c0,0.034 0.003,0.072 0.003,0.109c0,0.019 0,0.038 0,0.057c0.003,0.034 0.003,0.068 0.003,0.103c0.003,0.025 0.003,0.05 0.003,0.075c0,0.034 0,0.065 0.003,0.1c0,0.05 0,0.097 0.003,0.147c0,0.025 0,0.046 0,0.071c0,0.035 0,0.066 0.004,0.101l0,0.181c0.003,0.022 0.003,0.043 0.003,0.065l0,0.207c0.003,0.046 0.003,0.087 0.003,0.134l0,0.409c0,32.797 -26.588,59.385 -59.385,59.385Z" style="fill:#044d7b;fill-rule:nonzero;"/><path d="M1074.92,122.745c-20.096,-47.191 -45.14,-78.054 -70.871,-97.028c25.734,18.971 50.772,49.831 70.893,97.049m-70.906,-97.059c-0.028,-0.019 -0.056,-0.041 -0.081,-0.059c0.028,0.018 0.053,0.037 0.081,0.059Zm-0.153,-0.112c-0.006,-0.007 -0.016,-0.013 -0.022,-0.016c0.006,0.003 0.016,0.012 0.022,0.016Z" style="fill:#fde4cb;fill-rule:nonzero;"/><path d="M1553.79,685.041c-0.003,-0.793 -0.013,-1.581 -0.031,-2.371c0.018,0.79 0.028,1.578 0.031,2.371Zm-448.803,-171.421c0.016,-0.082 0.034,-0.163 0.05,-0.244c-0.016,0.081 -0.034,0.162 -0.05,0.244Zm-0.719,-290.804c-0.059,-0.318 -0.125,-0.653 -0.184,-0.971c0.062,0.325 0.122,0.646 0.184,0.971Zm-0.187,-0.987c-0.028,-0.134 -0.047,-0.241 -0.072,-0.375c0.022,0.128 0.047,0.247 0.072,0.375Zm-0.31,-1.581c-7.484,-38.344 -17.359,-70.578 -28.822,-97.482l-0.022,-0.021c11.488,26.931 21.36,59.143 28.844,97.503Z" style="fill:#dacfbe;fill-rule:nonzero;"/><path d="M1344.8,1365.56l-104.516,0c52.116,0 94.778,-46.84 94.778,-104.134l0,-9.881c0,-32.735 -13.969,-61.997 -35.631,-81.144c38.244,-12.256 66.369,-51.166 66.369,-97.01l0,-3.418c0,-30.169 -12.26,-57.344 -31.547,-75.919c43.281,-12.541 75.49,-55.869 75.49,-107.222c0,-32.734 -13.159,-62.187 -33.871,-82.569c42.896,-18.909 73.396,-65.037 73.396,-118.675c0,-0.431 -0.003,-0.862 -0.006,-1.29c-0.378,-41.288 -34.806,-74.197 -76.094,-74.197l-383.818,0l0,-52.4c21.806,-74.016 38.481,-187.466 10.453,-334.594c-23.556,-123.575 -71.644,-184.219 -118.691,-208.941c12.063,-8.465 29.5,-14.159 49.531,-14.159c22.45,0 48.157,7.147 73.219,25.572c0.006,0.003 0.016,0.009 0.022,0.016c0.022,0.015 0.05,0.037 0.072,0.053c0.025,0.018 0.053,0.04 0.081,0.059c0.003,0.003 0.006,0.006 0.013,0.01c25.731,18.974 50.775,49.837 70.893,97.049c11.463,26.904 21.338,59.138 28.822,97.482c0.078,0.393 0.16,0.809 0.238,1.206c0.025,0.134 0.044,0.241 0.072,0.375l0.003,0.016c0.059,0.318 0.125,0.653 0.184,0.971c0.019,0.1 0.038,0.191 0.056,0.291c22.929,120.356 15.932,218.138 0.694,290.269l0.019,0c-0.016,0.081 -0.034,0.162 -0.05,0.244c-0.913,4.268 -1.856,8.428 -2.816,12.515c-0.525,2.244 -1.065,4.413 -1.606,6.603c-0.55,2.235 -1.103,4.45 -1.669,6.628c-0.575,2.226 -1.15,4.441 -1.737,6.607c-1.081,4.003 -2.175,7.928 -3.285,11.728l343.522,0c2.528,0 5.028,0.122 7.516,0.297c0.703,0.05 1.406,0.115 2.106,0.178c1.988,0.181 3.966,0.415 5.925,0.706c0.534,0.081 1.072,0.141 1.606,0.228c2.36,0.388 4.697,0.86 7.01,1.4c0.659,0.156 1.309,0.335 1.962,0.5c1.653,0.425 3.3,0.869 4.925,1.378c0.832,0.263 1.666,0.507 2.491,0.785c2.216,0.734 4.406,1.528 6.562,2.406c0.454,0.184 0.897,0.394 1.347,0.584c1.819,0.769 3.613,1.588 5.388,2.45c0.634,0.31 1.262,0.622 1.89,0.944c2.06,1.05 4.094,2.15 6.085,3.328l0.212,0.122c2.257,1.338 4.453,2.775 6.616,4.269l0.215,0.14l0,0.013c31.988,22.216 53.594,61.034 54.507,105.241c0.018,0.79 0.028,1.578 0.031,2.371c0,0.182 0,0.366 0,0.547c0,53.638 -30.5,99.766 -73.397,118.675c20.713,20.382 33.872,49.835 33.872,82.569c0,51.353 -32.209,94.681 -75.491,107.222c19.291,18.575 31.547,45.75 31.547,75.919l0,3.418c0,45.844 -28.125,84.754 -66.368,97.01c21.662,19.147 35.631,48.409 35.631,81.144l0,9.881c0,57.294 -42.663,104.134 -94.778,104.134Z" style="fill:#fbb278;fill-rule:nonzero;"/><path d="M172.313,1157.26c5.481,5.95 3.144,17.019 -5.219,24.719c-8.362,7.703 -19.584,9.125 -25.065,3.175c-5.482,-5.95 -3.144,-17.019 5.218,-24.722c8.363,-7.703 19.585,-9.125 25.066,-3.172Z" style="fill:#fff;fill-rule:nonzero;"/></svg>