<?xml version="1.0" encoding="UTF-8" standalone="no"?><!DOCTYPE svg PUBLIC "-//W3C//DTD SVG 1.1//EN" "http://www.w3.org/Graphics/SVG/1.1/DTD/svg11.dtd"><svg width="100%" height="100%" viewBox="0 0 2091 653" version="1.1" xmlns="http://www.w3.org/2000/svg" xmlns:xlink="http://www.w3.org/1999/xlink" xml:space="preserve" xmlns:serif="http://www.serif.com/" style="fill-rule:evenodd;clip-rule:evenodd;stroke-linejoin:round;stroke-miterlimit:1.41421;"><path d="M15.272,223.58c100.281,-70.287 296.238,-91.603 422.441,-91.603c110.115,0 99.056,40.06 105.687,85.875c14.507,100.091 11.997,203.078 -2.05,302.747c-5.597,39.725 -34.765,84.981 -79.453,85.997c-190.281,4.337 -303.315,46.194 -378.912,45.812c-72.807,-0.362 155.25,-194.862 106.937,-285.543c-42.969,-80.657 -246.665,-92.81 -174.65,-143.285Z" style="fill:#67b28e;"/><path d="M552.969,337.708c1.147,61.269 -3.134,122.682 -11.619,182.891c-5.597,39.716 -34.765,84.981 -79.453,85.997l-3.387,0.087c71.334,-79.718 -78.653,-90.89 -96.491,-92.518c-3.859,-103.438 83.456,-153.632 190.95,-176.457Z" style="fill:#569677;"/><path d="M2075.72,223.58c-100.281,-70.287 -296.225,-91.603 -422.437,-91.603c-110.116,0 -99.056,40.06 -105.691,85.875c-14.506,100.091 -12.006,203.078 2.053,302.747c5.597,39.725 34.763,84.981 79.453,85.997c190.279,4.337 303.329,46.194 378.91,45.812c72.806,-0.362 -155.247,-194.862 -106.935,-285.543c42.969,-80.657 246.663,-92.81 174.647,-143.285Z" style="fill:#67b28e;"/><path d="M1538.03,337.708c-1.149,61.269 3.132,122.682 11.619,182.891c5.597,39.716 34.763,84.981 79.453,85.997l3.378,0.087c-71.324,-79.718 78.651,-90.89 96.501,-92.518c3.856,-103.438 -83.457,-153.632 -190.951,-176.457Z" style="fill:#569677;"/><path d="M374.003,33.502c448.554,-48.972 897.129,-40.15 1345.69,0c49.706,4.447 74.725,43.45 90.725,90.725c31.609,93.4 32.022,193.035 0,299.156c-14.416,47.766 -40.975,94.594 -90.725,90.713c-448.562,-34.953 -897.137,-41.431 -1345.69,0c-49.693,4.597 -71.803,-44.553 -90.725,-90.713c-40.875,-99.721 -35.509,-199.443 0,-299.156c16.747,-47.006 41.122,-85.319 90.725,-90.725Z" style="fill:#80caa7;"/><path d="M600.682,257.699c-1.547,0.309 -3.094,1.238 -4.95,0.928c-16.707,-2.784 -32.485,-0.619 -48.572,0.31c-5.878,0 -11.447,2.165 -17.016,2.784c-4.022,0.619 -7.734,-2.475 -7.425,-6.188c0,-1.856 1.238,-4.021 2.784,-4.64c2.166,-0.928 5.26,-0.928 7.735,-1.238c15.469,-0.618 30.937,-0.928 46.097,-1.547c4.022,0 8.043,-0.618 12.065,-0.928c4.022,-0.309 8.353,2.475 9.591,6.497c0.309,0.928 -0.309,2.166 -0.309,4.022Z" style="fill:#fff;fill-rule:nonzero;"/><path d="M765.263,240.993c-0.928,6.187 -1.856,9.281 -2.166,12.375c-0.928,11.447 -1.547,22.894 -2.165,34.34c-2.475,24.441 -4.332,49.5 -9.282,73.013c-1.237,1.237 -2.165,2.166 -3.093,2.475c-5.569,2.475 -9.282,0.619 -10.829,-5.259c-0.618,-3.094 -0.618,-6.497 -1.237,-9.9c-2.475,-14.541 -4.331,-29.7 -7.116,-44.241c-2.475,-17.016 -5.878,-33.722 -8.662,-50.428c-2.785,-17.635 -5.878,-35.269 -8.972,-52.903c-0.928,-4.95 -1.856,-9.591 -2.166,-14.232c-1.856,-11.137 -3.712,-21.656 -4.64,-32.484c-1.238,-11.137 -4.332,-21.656 -7.425,-32.175c-1.238,-3.712 -0.619,-6.187 1.547,-7.425c2.475,-1.237 5.878,-0.309 7.115,3.094c1.547,3.403 2.785,6.806 3.403,10.209c2.785,10.828 4.641,21.966 5.569,33.413c1.856,15.468 3.713,30.628 6.497,45.787c4.022,22.275 8.662,44.55 12.684,66.825c2.475,12.375 3.403,24.75 5.878,37.125c1.547,8.353 1.547,17.016 6.497,26.606c1.547,-16.087 3.403,-30.628 4.95,-44.859c0.928,-12.684 1.238,-25.369 2.166,-37.744c0.309,-5.878 1.547,-11.447 2.475,-17.325c0.309,-4.022 1.237,-8.043 1.237,-12.065c-0.309,-4.332 1.857,-6.807 3.713,-9.591c1.856,-2.166 5.878,-1.856 7.734,0.619c1.238,2.475 2.475,5.259 2.785,7.734c2.165,8.972 3.712,18.253 4.95,27.535c2.165,14.54 3.403,29.7 5.878,44.859c1.547,11.447 4.022,22.584 6.187,34.031c2.785,0.619 2.785,-1.547 3.094,-2.784c1.856,-13.613 4.641,-27.225 6.188,-41.147c2.165,-15.469 4.64,-30.938 4.64,-47.025c0,-8.353 1.856,-16.397 2.785,-24.441c1.856,-17.325 3.403,-34.959 5.568,-52.284c1.238,-12.994 3.094,-25.678 4.95,-38.672c0,-0.309 0,-0.619 0.31,-0.928c0.618,-3.403 3.712,-5.878 5.878,-5.569c3.094,0.31 5.259,4.331 4.331,8.353c-1.237,7.735 -2.784,15.778 -4.95,23.513c-2.475,9.281 -2.784,18.872 -3.403,27.844c-1.238,15.778 -2.784,30.628 -5.569,46.096c-0.619,5.879 -1.237,12.066 -1.237,18.254c-1.238,27.225 -5.569,54.45 -9.282,81.056c-1.547,9.281 -2.165,18.872 -3.403,28.153c0,1.856 0,4.022 -0.309,5.878c-0.928,7.425 -4.95,9.281 -10.519,4.641c-4.022,-4.022 -5.569,-9.591 -6.497,-15.16c-1.237,-7.115 -2.165,-14.54 -3.403,-21.656c-2.784,-16.706 -5.569,-33.722 -7.115,-50.737c-0.619,-9.9 -3.404,-19.8 -5.569,-32.794Z" style="fill:#fff;fill-rule:nonzero;"/><path d="M862.4,349.587c0,-4.641 0,-9.591 0,-14.85l0,-36.197c0,-8.972 0.31,-17.325 0.928,-25.369c1.238,-13.922 2.166,-27.534 0,-41.766c0,-0.309 0,-0.618 0,-0.928c6.497,-1.856 11.757,-2.784 17.016,-2.784c3.403,0 6.806,0.309 9.281,0.928c1.857,0.309 3.094,0.619 4.022,0.619c5.26,0 6.188,-4.641 7.116,-10.828l0,-0.619l-0.619,-0.619c-2.475,-2.475 -4.95,-2.784 -6.806,-2.784c-0.928,0 -2.166,0.309 -3.403,0.309c-0.928,0.309 -1.547,0.309 -2.166,0.309c-5.878,0.31 -12.066,0.929 -18.253,1.547c-1.856,0.31 -4.022,0.31 -6.188,0.31l0,-5.878c-0.309,-5.26 -0.309,-10.829 -0.309,-15.779l0,-22.275l0,-0.618c0.309,-3.713 0.309,-6.807 0.309,-10.21l0,-12.993c0,-5.569 0,-10.829 0,-15.779l0,-6.187c1.238,-0.928 2.785,-1.547 4.95,-1.547c0.31,0 0.929,0.309 1.857,0.309c3.093,0.31 6.187,0.31 8.972,0l7.425,0c6.187,0 11.137,0.619 15.778,2.166l1.547,0c2.475,0 4.64,-1.856 5.568,-5.569c0.31,-1.237 0,-3.093 -0.928,-4.331c-0.928,-1.547 -1.856,-2.784 -3.712,-3.094c-1.547,-0.309 -3.094,-0.309 -4.95,-0.618l-1.547,0c-2.475,0 -5.569,0 -8.044,-0.31c-5.569,0 -11.756,-0.309 -17.325,-0.928l-3.094,0c-2.475,0 -4.95,0.309 -7.425,0.309c-2.475,0.619 -4.331,0.929 -6.497,0.929l-0.309,0c-1.856,0 -4.022,3.403 -4.331,5.259c0,1.547 0.309,3.403 0.309,5.259c0.31,0.928 0.31,1.857 0.31,2.475c0.309,3.713 0.309,7.425 0.618,11.138c0.619,8.662 0.928,18.253 0.928,27.225l0,7.115c-0.309,20.729 -0.618,42.385 0.619,63.422c0.619,6.188 0.928,12.685 0.31,19.491c-0.929,11.137 -1.547,22.584 -1.857,34.031c0,2.475 0,4.95 0,7.735l-0.618,6.187c-0.31,3.094 -0.619,5.878 -0.619,8.972c0.309,13.922 0.309,26.606 -1.238,38.981c0,0.31 -0.309,0.619 -0.309,0.928l0,1.547c0,3.094 2.475,7.116 4.95,7.425c4.331,0.619 8.044,0.928 11.137,0.928l1.547,0c3.094,0 6.188,-0.309 9.591,-0.618c3.403,-0.31 6.497,-0.619 9.9,-0.619c2.166,0 4.331,0 6.187,0.309c0,0.31 0.31,0.31 0.619,0.31c0.928,0 1.856,-0.31 2.785,-0.619c0.309,-0.31 0.618,-0.31 0.928,-0.31l0.309,-0.309c1.547,-0.309 3.094,-0.619 4.641,-0.619c0.928,0 1.856,0 2.784,0.619c0.928,0.309 1.547,0.619 2.166,0.619c2.784,0 4.64,-2.475 5.259,-4.022c1.238,-1.856 1.547,-4.95 1.238,-7.116c-0.31,-2.165 -2.166,-4.331 -5.26,-4.331c-0.309,0 -0.309,0 -0.619,0l-0.928,0c-1.547,0.619 -3.093,0.619 -4.64,0.928c-4.022,1.238 -7.425,1.238 -10.828,1.238l-4.022,0c-0.619,0 -1.238,0 -1.857,0l-4.95,0c-0.928,0.309 -1.856,0.309 -2.784,0.309c-4.022,0.619 -7.425,0.928 -11.447,1.238l-4.022,0Z" style="fill:#fff;fill-rule:nonzero;"/><path d="M945.932,113.533c7.734,-1.546 9.59,-0.309 9.9,6.497c0.618,17.016 1.237,34.032 0.309,50.738c-0.619,9.281 0.309,18.253 -0.309,27.534c-0.619,10.828 -0.929,21.966 -0.619,32.794c0.928,48.262 0,57.853 0.309,67.444c0.31,13.612 0.619,27.225 0.31,40.837l0,11.138c4.021,3.093 8.353,1.237 12.065,0.309c7.425,-1.856 15.16,-2.166 22.894,-1.856c3.094,0.309 6.187,0.619 9.281,1.237c1.238,0 2.785,0.928 4.022,1.547c3.094,2.475 2.784,7.116 -0.619,8.972c-1.856,0.928 -3.403,1.238 -5.259,1.238c-1.238,0.309 -3.403,-0.31 -4.641,-0.929c-8.353,-3.093 -16.706,-1.856 -25.059,-0.309l-17.325,3.713c-3.713,0.618 -7.734,-3.713 -6.806,-7.735c3.403,-14.231 1.237,-28.462 1.547,-42.694l0,-1.237c0.618,-19.491 0,-83.222 0.618,-95.906c0.31,-5.26 0.619,-10.519 0.619,-15.469l-0.928,-58.163c-0.309,-8.662 -0.309,-17.015 -0.619,-25.368c0,-1.547 0.31,-3.094 0.31,-4.332Z" style="fill:#fff;fill-rule:nonzero;"/><path d="M1016.16,309.368c-0.309,-5.878 -0.618,-11.447 -0.618,-17.325c0,-15.778 0,-31.247 0.309,-46.406c0.309,-12.685 0,-25.06 0.928,-37.435c0.619,-11.756 0.31,-23.203 0.619,-34.959c0.309,-6.497 -0.309,-13.613 -0.309,-21.038c0.309,-4.022 1.237,-8.043 1.547,-12.375c0.618,-10.518 6.496,-16.706 13.612,-21.965c7.116,-4.95 15.469,-6.807 24.441,-4.95c3.403,0.928 6.497,2.784 9.281,6.187c3.712,5.26 8.044,10.21 8.972,17.635c0.928,6.806 0.928,12.993 0.928,19.8c0.309,3.403 -1.547,4.95 -4.331,5.259c-2.785,0.309 -5.26,-1.547 -5.569,-4.641c-0.309,-4.331 -0.309,-8.043 -0.309,-11.756c-0.31,-7.734 -3.094,-13.612 -8.663,-18.562c-5.878,-4.022 -11.447,-4.332 -17.634,-0.31c-1.857,1.238 -3.403,2.785 -5.569,4.641c-2.475,2.165 -4.022,4.95 -4.641,8.662c-1.547,8.353 -2.475,17.325 -1.856,26.297c0.928,9.591 -0.309,20.11 -0.619,30.01c-0.309,11.446 -0.618,22.584 -1.237,33.721c-2.166,20.729 0,41.457 0,61.875c0,8.972 -0.619,17.635 -0.619,26.607c0,4.64 0.309,8.662 0.928,12.375c0.928,12.684 7.735,19.8 17.325,23.203c3.403,0.928 7.116,1.856 10.828,1.237c6.497,-1.237 9.591,-5.259 11.447,-11.756c0.928,-4.331 1.238,-8.972 1.547,-14.231c0.928,-6.806 1.238,-14.231 1.856,-21.966c0.619,-4.022 3.094,-6.187 5.878,-5.569c3.713,0.31 7.116,4.332 5.569,8.044c-3.712,8.663 -2.165,18.253 -4.331,27.225c-0.928,3.403 -0.928,6.806 -1.856,10.21c-2.785,11.446 -10.519,17.634 -20.728,18.871c-11.447,1.238 -20.729,-4.021 -29.082,-12.684c-5.259,-5.259 -8.044,-12.375 -8.044,-20.419c0.31,-7.734 -0.309,-15.778 -0.618,-23.512l0.618,0Z" style="fill:#fff;fill-rule:nonzero;"/><path d="M1105.25,300.705c-0.928,-18.253 -1.546,-40.218 -2.784,-61.875c-0.309,-10.518 -1.237,-21.037 -1.856,-31.556c0,-2.166 -0.31,-4.641 -0.619,-6.806c-0.309,-4.331 -1.237,-8.663 -0.928,-12.685c1.237,-11.756 2.475,-23.203 4.331,-34.959c1.856,-10.209 6.497,-18.872 11.447,-26.916c3.094,-4.95 7.425,-7.734 11.756,-9.9c1.547,-0.618 3.403,0 4.022,-1.237c4.641,-5.569 9.591,-3.403 14.85,-1.856c6.188,1.856 12.066,4.022 17.635,7.425c10.828,7.115 15.468,17.943 15.778,30.937c0.618,23.513 0.618,46.716 0.618,69.919c0.31,25.059 0.619,50.119 0,74.869c-0.618,15.468 -2.165,30.318 -5.878,45.168c-3.712,14.541 -17.015,25.679 -30.628,24.441c-10.519,-1.237 -20.109,-4.331 -28.153,-12.066c-6.187,-5.878 -9.591,-12.375 -9.591,-21.346l0,-31.557Zm63.732,-139.528c0.309,-3.712 0,-7.734 0,-11.447c0,-8.353 -3.403,-14.231 -9.282,-18.872c-4.331,-3.403 -9.281,-5.568 -13.921,-8.043c-1.238,-0.619 -2.785,-0.31 -4.022,0c-3.094,0.928 -6.188,2.475 -8.972,3.403c-4.331,0.928 -7.735,3.403 -10.519,7.115c-4.641,5.879 -7.425,12.685 -8.662,19.8c-3.713,17.016 -6.807,34.341 -3.404,51.975c0.31,2.166 0,4.641 0.31,6.807c0.619,14.85 1.547,29.7 2.475,44.55c0.619,14.85 1.856,29.39 1.856,44.55c0.309,9.281 0,18.253 0,27.534c0,11.447 5.878,18.253 14.541,22.275c4.64,2.166 9.59,3.094 14.54,3.713c4.022,0.618 8.044,0.309 10.828,-2.785c6.188,-6.497 11.138,-13.612 12.066,-22.894c1.237,-13.921 4.641,-27.534 3.403,-41.765c-0.309,-0.928 -0.309,-2.166 -0.309,-3.403c0,-13.613 1.856,-27.225 0,-40.838l0,-4.64c0,-5.26 0,-10.829 0,-16.397l0,-10.519c0.309,-9.9 0.619,-20.109 0.309,-30.319c0,-6.187 -0.928,-12.994 -1.237,-19.8Z" style="fill:#fff;fill-rule:nonzero;"/><path d="M1285.92,139.83c-7.115,8.044 -11.447,17.325 -16.087,26.607c-2.785,5.259 -6.188,10.828 -9.591,16.087c-4.022,6.188 -8.662,5.569 -11.447,-1.237c-6.187,-13.922 -13.612,-27.225 -21.037,-40.529c-1.547,-2.475 -3.713,-4.95 -4.95,-7.425c-2.785,1.238 -1.856,2.785 -1.856,4.022c1.856,24.441 4.021,48.882 3.403,73.632c-0.619,21.965 -1.547,44.24 -1.547,66.206c0,8.972 0.928,17.634 1.237,26.606c0.31,15.778 0.31,31.556 0.619,47.025c0,1.856 -0.309,3.713 -0.619,5.569c-0.618,2.475 -3.712,4.022 -5.878,3.094c-2.475,-0.619 -4.022,-2.166 -4.022,-4.641c0.31,-9.9 1.238,-19.181 1.238,-29.081c0,-10.519 -0.928,-21.657 -0.928,-32.485c0,-28.153 -0.928,-55.997 0.928,-84.15c0.619,-6.187 0.619,-12.375 0,-18.872c-0.928,-17.634 -1.547,-34.959 -3.094,-52.593c-0.619,-6.497 -2.475,-13.303 -3.712,-19.8c-0.929,-3.713 0.309,-5.878 3.712,-6.497l2.784,0c4.022,-0.619 7.116,0.928 8.972,4.64c9.591,17.944 19.181,35.579 29.081,53.522c0.31,0.619 1.238,1.238 2.476,2.166c1.856,-2.475 4.021,-5.259 5.568,-8.044l18.563,-38.053c0.928,-2.166 1.856,-4.641 2.475,-7.425c0.619,-2.784 2.165,-4.331 4.331,-5.569c3.094,-1.237 3.094,-1.237 9.591,0.31c-2.166,12.684 -1.547,25.368 -1.857,37.743c-0.309,21.347 0,42.694 -0.309,64.041c-0.619,17.325 0.928,34.959 -1.237,52.284c-0.619,4.641 -0.31,9.282 0.309,13.613c1.237,14.541 0.928,29.081 0,43.622c-0.619,9.9 -0.309,20.109 -0.619,30.009c0,1.856 0.31,4.022 0,5.878c-0.309,2.166 -2.784,4.641 -5.259,4.95c-2.166,0 -4.641,-2.165 -4.95,-4.95c0,-1.856 0.309,-3.712 0.309,-5.568c1.547,-24.132 2.785,-48.572 1.238,-72.704l0,-8.043c0.309,-12.685 0.309,-25.06 0.618,-38.053c0.619,-13.922 0.929,-28.463 1.238,-42.385c0.309,-8.662 -0.309,-17.325 -0.309,-25.678l0,-15.778c0,-4.331 0.309,-8.353 0.618,-12.066Z" style="fill:#fff;fill-rule:nonzero;"/><path d="M1336.66,349.587c0,-4.641 0,-9.591 0,-14.85l0,-36.197c0,-8.972 0.309,-17.325 0.928,-25.369c1.237,-13.922 2.165,-27.534 0,-41.766c0,-0.309 0,-0.618 0,-0.928c6.497,-1.856 11.756,-2.784 17.015,-2.784c3.404,0 6.807,0.309 9.282,0.928c1.856,0.309 3.093,0.619 4.022,0.619c5.259,0 6.187,-4.641 7.115,-10.828l0,-0.619l-0.619,-0.619c-2.475,-2.475 -4.95,-2.784 -6.806,-2.784c-0.928,0 -2.165,0.309 -3.403,0.309c-0.928,0.309 -1.547,0.309 -2.166,0.309c-5.878,0.31 -12.065,0.929 -18.253,1.547c-1.856,0.31 -4.022,0.31 -6.187,0.31l0,-5.878c-0.31,-5.26 -0.31,-10.829 -0.31,-15.779l0,-22.275l0,-0.618c0.31,-3.713 0.31,-6.807 0.31,-10.21l0,-12.993c0,-5.569 0,-10.829 0,-15.779l0,-6.187c1.237,-0.928 2.784,-1.547 4.95,-1.547c0.309,0 0.928,0.309 1.856,0.309c3.094,0.31 6.188,0.31 8.972,0l7.425,0c6.187,0 11.137,0.619 15.778,2.166l1.547,0c2.475,0 4.641,-1.856 5.569,-5.569c0.309,-1.237 0,-3.093 -0.928,-4.331c-0.929,-1.547 -1.857,-2.784 -3.713,-3.094c-1.547,-0.309 -3.094,-0.309 -4.95,-0.618l-1.547,0c-2.475,0 -5.569,0 -8.044,-0.31c-5.568,0 -11.756,-0.309 -17.325,-0.928l-3.093,0c-2.475,0 -4.95,0.309 -7.425,0.309c-2.475,0.619 -4.332,0.929 -6.497,0.929l-0.31,0c-1.856,0 -4.021,3.403 -4.331,5.259c0,1.547 0.31,3.403 0.31,5.259c0.309,0.928 0.309,1.857 0.309,2.475c0.309,3.713 0.309,7.425 0.619,11.138c0.618,8.662 0.928,18.253 0.928,27.225l0,7.115c-0.31,20.729 -0.619,42.385 0.618,63.422c0.619,6.188 0.929,12.685 0.31,19.491c-0.928,11.137 -1.547,22.584 -1.856,34.031c0,2.475 0,4.95 0,7.735l-0.619,6.187c-0.309,3.094 -0.619,5.878 -0.619,8.972c0.31,13.922 0.31,26.606 -1.237,38.981c0,0.31 -0.31,0.619 -0.31,0.928l0,1.547c0,3.094 2.475,7.116 4.95,7.425c4.332,0.619 8.044,0.928 11.138,0.928l1.547,0c3.093,0 6.187,-0.309 9.59,-0.618c3.403,-0.31 6.497,-0.619 9.9,-0.619c2.166,0 4.332,0 6.188,0.309c0,0.31 0.309,0.31 0.619,0.31c0.928,0 1.856,-0.31 2.784,-0.619c0.309,-0.31 0.619,-0.31 0.928,-0.31l0.309,-0.309c1.547,-0.309 3.094,-0.619 4.641,-0.619c0.928,0 1.856,0 2.784,0.619c0.929,0.309 1.547,0.619 2.166,0.619c2.784,0 4.641,-2.475 5.259,-4.022c1.238,-1.856 1.547,-4.95 1.238,-7.116c-0.309,-2.165 -2.166,-4.331 -5.259,-4.331c-0.31,0 -0.31,0 -0.619,0l-0.928,0c-1.547,0.619 -3.094,0.619 -4.641,0.928c-4.022,1.238 -7.425,1.238 -10.828,1.238l-4.022,0c-0.619,0 -1.237,0 -1.856,0l-4.95,0c-0.928,0.309 -1.856,0.309 -2.785,0.309c-4.021,0.619 -7.425,0.928 -11.446,1.238l-4.022,0Z" style="fill:#fff;fill-rule:nonzero;"/><path d="M1558.48,257.699c-1.546,0.309 -3.093,1.238 -4.95,0.928c-16.706,-2.784 -32.484,-0.619 -48.571,0.31c-5.879,0 -11.447,2.165 -17.016,2.784c-4.022,0.619 -7.734,-2.475 -7.425,-6.188c0,-1.856 1.237,-4.021 2.784,-4.64c2.166,-0.928 5.26,-0.928 7.735,-1.238c15.468,-0.618 30.937,-0.928 46.097,-1.547c4.021,0 8.043,-0.618 12.065,-0.928c4.022,-0.309 8.353,2.475 9.591,6.497c0.309,0.928 -0.31,2.166 -0.31,4.022Z" style="fill:#fff;fill-rule:nonzero;"/></svg>